<svg width="24" height="24" viewBox="0 0 24 24" fill="none" xmlns="http://www.w3.org/2000/svg">
<path d="M11.3938 2.28418C11.2253 2.11572 10.9876 2.03516 10.7518 2.07288C10.5167 2.10803 10.312 2.25305 10.2006 2.46362L5.48092 11.3794L2.90829 13.9517C2.11691 14.7438 1.87484 15.8684 2.15463 16.877C1.22848 18.0532 1.2944 19.7609 2.37838 20.8463C2.96359 21.4308 3.7319 21.723 4.50021 21.723C5.15646 21.723 5.80538 21.4963 6.34737 21.0697C6.61068 21.1429 6.87948 21.1927 7.15121 21.1927C7.67745 21.1924 8.19967 21.0448 8.66695 20.7705L10.5991 22.7019C10.9642 23.0674 11.4443 23.2498 11.9244 23.2498C12.4045 23.2498 12.885 23.0674 13.2505 22.7019C13.9814 21.9709 13.9814 20.7815 13.2505 20.0505L11.3941 18.1942L11.8449 17.7434L20.7607 13.0229C20.9709 12.9116 21.1159 12.7069 21.1518 12.4714C21.187 12.2363 21.1086 11.9979 20.9401 11.8298L11.3938 2.28418ZM3.43929 19.7854C3.04855 19.3943 2.92477 18.8409 3.05624 18.3414L4.8829 20.1681C4.38375 20.2996 3.83041 20.1761 3.43929 19.7854ZM6.09103 19.2551L3.9692 17.1333C3.38473 16.5488 3.38473 15.597 3.9692 15.0122L6.09103 12.8904L10.3339 17.1333L8.21212 19.2548C7.62765 19.84 6.67623 19.8403 6.09103 19.2551ZM12.1899 21.1111C12.284 21.2052 12.2983 21.3176 12.2983 21.3762C12.2983 21.4348 12.284 21.5472 12.1903 21.641C12.0467 21.7838 11.8039 21.7856 11.6596 21.6414L9.80294 19.7854L10.3336 19.2548L12.1899 21.1111ZM11.5329 16.2115L7.01315 11.691L11.0514 4.06287L19.1618 12.1726L11.5329 16.2115ZM14.2502 3.00049V1.50049C14.2502 1.0863 14.5857 0.750488 15.0002 0.750488C15.4148 0.750488 15.7502 1.0863 15.7502 1.50049V3.00049C15.7502 3.41467 15.4148 3.75049 15.0002 3.75049C14.5857 3.75049 14.2502 3.41467 14.2502 3.00049ZM22.5002 8.25012C22.5002 8.66431 22.1648 9.00012 21.7502 9.00012H20.2502C19.8357 9.00012 19.5002 8.66431 19.5002 8.25012C19.5002 7.83594 19.8357 7.50012 20.2502 7.50012H21.7502C22.1648 7.50012 22.5002 7.83594 22.5002 8.25012ZM17.4699 5.7804C17.177 5.48743 17.177 5.01282 17.4699 4.71985L18.9699 3.21985C19.2629 2.92688 19.7375 2.92688 20.0305 3.21985C20.3235 3.51282 20.3235 3.98743 20.0305 4.2804L18.5305 5.7804C18.384 5.92688 18.1921 6.00012 18.0002 6.00012C17.8083 6.00012 17.6164 5.92688 17.4699 5.7804Z" fill="#FFF3F3"/>
</svg>
