<svg width="14" height="15" viewBox="0 0 14 15" fill="none" xmlns="http://www.w3.org/2000/svg">
<path d="M6.53546 6.97589L6.56432 6.96182C6.65456 6.91674 6.75583 6.89846 6.85614 6.90915C6.95645 6.91984 7.05159 6.95905 7.13031 7.02214C7.20902 7.08523 7.26801 7.16955 7.30028 7.26513C7.33255 7.3607 7.33676 7.46352 7.31241 7.56142L6.81415 9.55726C6.78962 9.65521 6.7937 9.75813 6.8259 9.85382C6.8581 9.94952 6.91707 10.034 6.99582 10.0972C7.07456 10.1603 7.16978 10.1996 7.27018 10.2103C7.37058 10.221 7.47194 10.2027 7.56224 10.1576L7.5911 10.1428M13.3971 7.50371C13.3971 8.33547 13.2332 9.15909 12.9149 9.92755C12.5966 10.696 12.1301 11.3942 11.5419 11.9824C10.9538 12.5705 10.2556 13.0371 9.48712 13.3554C8.71867 13.6737 7.89504 13.8375 7.06328 13.8375C6.23152 13.8375 5.40789 13.6737 4.63944 13.3554C3.87099 13.0371 3.17276 12.5705 2.58462 11.9824C1.99647 11.3942 1.52993 10.696 1.21162 9.92755C0.89332 9.15909 0.729492 8.33547 0.729492 7.50371C0.729492 5.82388 1.3968 4.21286 2.58462 3.02505C3.77243 1.83723 5.38345 1.16992 7.06328 1.16992C8.7431 1.16992 10.3541 1.83723 11.5419 3.02505C12.7298 4.21286 13.3971 5.82388 13.3971 7.50371ZM7.06328 4.86463H7.06891V4.87026H7.06328V4.86463Z" stroke="#FF2424" stroke-width="1.05563" stroke-linecap="round" stroke-linejoin="round"/>
</svg>
