<svg width="23" height="20" viewBox="0 0 23 20" fill="none" xmlns="http://www.w3.org/2000/svg">
<path d="M0.8395 0.839553C0.944934 0.67168 1.10911 0.554957 1.29592 0.515052C1.48274 0.475147 1.67689 0.515329 1.83569 0.62676L3.99194 2.14823C4.14446 2.26258 4.24884 2.43528 4.28292 2.62967C4.317 2.82405 4.27809 3.02483 4.17446 3.18939C4.07083 3.35394 3.91064 3.46932 3.72787 3.51104C3.54511 3.55276 3.35416 3.51753 3.19556 3.41283L1.03931 1.89288C0.880779 1.78116 0.770682 1.60746 0.733214 1.40995C0.695747 1.21243 0.733976 1.00728 0.8395 0.839553ZM11.5 0.500604C9.78438 0.500604 8.13903 1.22122 6.9259 2.50393C5.71278 3.78664 5.03125 5.52636 5.03125 7.34039V10.9898L3.6455 14.6574C3.6018 14.7727 3.58549 14.8976 3.59801 15.0211C3.61053 15.1446 3.65149 15.263 3.71731 15.3659C3.78314 15.4688 3.87181 15.5531 3.97557 15.6114C4.07933 15.6696 4.19502 15.7001 4.3125 15.7001H18.6875C18.8048 15.7 18.9203 15.6695 19.0239 15.6113C19.1275 15.5532 19.2161 15.469 19.2818 15.3664C19.3476 15.2637 19.3886 15.1455 19.4013 15.0222C19.414 14.8989 19.3979 14.7742 19.3545 14.659L17.9688 10.9883V7.34039C17.9688 5.52636 17.2872 3.78664 16.0741 2.50393C14.861 1.22122 13.2156 0.500604 11.5 0.500604ZM11.5 19.5C10.8625 19.5002 10.243 19.2763 9.73899 18.8636C9.23495 18.4509 8.87494 17.8727 8.71556 17.2201H14.2844C14.1251 17.8727 13.765 18.4509 13.261 18.8636C12.757 19.2763 12.1375 19.5002 11.5 19.5ZM21.1643 0.62828C21.3229 0.52358 21.5139 0.488351 21.6966 0.530069C21.8794 0.571787 22.0396 0.687168 22.1432 0.851724C22.2468 1.01628 22.2857 1.21706 22.2517 1.41145C22.2176 1.60583 22.1132 1.77853 21.9607 1.89288L19.8044 3.41283C19.6458 3.51753 19.4549 3.55276 19.2721 3.51104C19.0894 3.46932 18.9292 3.35394 18.8255 3.18939C18.7219 3.02483 18.683 2.82405 18.7171 2.62967C18.7512 2.43528 18.8555 2.26258 19.0081 2.14823L21.1643 0.62828ZM0 7.34039C0 7.13883 0.0757252 6.94553 0.210517 6.803C0.345309 6.66048 0.528126 6.58041 0.71875 6.58041H2.875C3.06562 6.58041 3.24844 6.66048 3.38323 6.803C3.51802 6.94553 3.59375 7.13883 3.59375 7.34039C3.59375 7.54194 3.51802 7.73525 3.38323 7.87777C3.24844 8.02029 3.06562 8.10036 2.875 8.10036H0.71875C0.528126 8.10036 0.345309 8.02029 0.210517 7.87777C0.0757252 7.73525 0 7.54194 0 7.34039ZM22.2812 6.58041C22.4719 6.58041 22.6547 6.66048 22.7895 6.803C22.9243 6.94553 23 7.13883 23 7.34039C23 7.54194 22.9243 7.73525 22.7895 7.87777C22.6547 8.02029 22.4719 8.10036 22.2812 8.10036H20.125C19.9344 8.10036 19.7516 8.02029 19.6168 7.87777C19.482 7.73525 19.4062 7.54194 19.4062 7.34039C19.4062 7.13883 19.482 6.94553 19.6168 6.803C19.7516 6.66048 19.9344 6.58041 20.125 6.58041H22.2812Z" fill="white"/>
</svg>
