<svg width="57" height="57" viewBox="0 0 57 57" fill="none" xmlns="http://www.w3.org/2000/svg">
<rect x="0.783203" y="0.762695" width="55.9441" height="55.9441" rx="27.972" fill="white"/>
<path d="M34.3185 30.7354C34.3071 30.7132 34.2959 30.6916 34.283 30.6702C33.8059 30.0609 33.3273 29.5389 33.3273 28.3656V24.4532C33.3273 22.8018 33.4585 21.2799 32.2423 20.151C31.2435 19.2396 29.6783 18.8906 28.4616 18.8906H27.9397C25.7251 19.0193 23.3798 19.9763 22.8559 22.7146C22.7697 23.0634 23.0315 23.1932 23.2046 23.2362L25.6384 23.5405C25.8987 23.4967 26.0296 23.2787 26.0728 23.0634C26.2891 22.1071 27.0716 21.6285 27.9399 21.5408H28.1144C28.6366 21.5408 29.2014 21.7583 29.5049 22.1939C29.8521 22.7148 29.8091 23.4112 29.8091 24.0205V24.3677C29.2442 24.4105 28.5916 24.4534 27.9399 24.5391C26.9409 24.6712 25.9419 24.8448 25.1171 25.2363C23.5093 25.8884 22.4229 27.2794 22.4229 29.3212C22.4229 29.8465 22.4951 30.316 22.6231 30.7356C23.1201 32.3637 24.5003 33.1906 26.1606 33.1906C26.8552 33.1906 27.4196 33.1022 27.9401 32.9738C28.7674 32.7122 29.4608 32.2341 30.2863 31.3641C30.7643 32.0161 30.8961 32.3218 31.7208 33.017C31.9386 33.1023 32.1558 33.1023 32.3285 32.9738C32.8507 32.5383 33.7638 31.7555 34.2411 31.3217C34.4364 31.1644 34.42 30.937 34.3185 30.7354ZM27.9396 26.539C28.504 26.4092 29.1574 26.3655 29.8087 26.3655V26.8876C29.8087 27.8871 29.8517 28.6692 29.3308 29.5389C29.0265 30.1467 28.504 30.5383 27.9396 30.6702C27.8539 30.6702 27.723 30.7134 27.5919 30.7134C26.6372 30.7134 26.0725 29.9743 26.0725 28.8878C26.0726 27.4958 26.8973 26.8449 27.9396 26.539Z" fill="black"/>
<path d="M34.3185 30.7354C34.3071 30.7132 34.2959 30.6916 34.283 30.6702C33.8059 30.0609 33.3273 29.5389 33.3273 28.3656V24.4532C33.3273 22.8018 33.4585 21.2799 32.2423 20.151C31.2435 19.2396 29.6783 18.8906 28.4616 18.8906H27.9397C25.7251 19.0193 23.3798 19.9763 22.8559 22.7146C22.7697 23.0634 23.0315 23.1932 23.2046 23.2362L25.6384 23.5405C25.8987 23.4967 26.0296 23.2787 26.0728 23.0634C26.2891 22.1071 27.0716 21.6285 27.9399 21.5408H28.1144C28.6366 21.5408 29.2014 21.7583 29.5049 22.1939C29.8521 22.7148 29.8091 23.4112 29.8091 24.0205V24.3677C29.2442 24.4105 28.5916 24.4534 27.9399 24.5391C26.9409 24.6712 25.9419 24.8448 25.1171 25.2363C23.5093 25.8884 22.4229 27.2794 22.4229 29.3212C22.4229 29.8465 22.4951 30.316 22.6231 30.7356C23.1201 32.3637 24.5003 33.1906 26.1606 33.1906C26.8552 33.1906 27.4196 33.1022 27.9401 32.9738C28.7674 32.7122 29.4608 32.2341 30.2863 31.3641C30.7643 32.0161 30.8961 32.3218 31.7208 33.017C31.9386 33.1023 32.1558 33.1023 32.3285 32.9738C32.8507 32.5383 33.7638 31.7555 34.2411 31.3217C34.4364 31.1644 34.42 30.937 34.3185 30.7354ZM27.9396 26.539C28.504 26.4092 29.1574 26.3655 29.8087 26.3655V26.8876C29.8087 27.8871 29.8517 28.6692 29.3308 29.5389C29.0265 30.1467 28.504 30.5383 27.9396 30.6702C27.8539 30.6702 27.723 30.7134 27.5919 30.7134C26.6372 30.7134 26.0725 29.9743 26.0725 28.8878C26.0726 27.4958 26.8973 26.8449 27.9396 26.539Z" stroke="black" stroke-width="0.34965" stroke-miterlimit="10" stroke-linecap="round" stroke-linejoin="round"/>
<path d="M28.4108 36.5778C28.3358 36.5802 28.2589 36.5802 28.186 36.5802C26.2056 36.5815 24.449 36.0173 22.7734 35.2411H20.37V33.9988C20.1346 33.8687 19.8994 33.738 19.664 33.6072C19.5714 33.5588 19.4752 33.5332 19.3823 33.5332C19.2634 33.5332 19.1405 33.5781 19.0516 33.6616C18.962 33.7461 18.9089 33.8679 18.9102 33.9919C18.9089 34.1526 18.9959 34.3008 19.1178 34.397C21.6118 36.5646 24.3467 38.5768 28.0243 38.5789C28.0954 38.5789 28.1688 38.5768 28.2418 38.5755C30.5811 38.5233 33.2259 37.7324 35.2799 36.4418L35.2924 36.434C35.561 36.273 35.8297 36.0898 36.0829 35.8872C36.2407 35.7705 36.3492 35.5875 36.3492 35.3976C36.3483 35.3418 36.3369 35.29 36.3217 35.2411H34.6204C32.5608 36.0552 30.4075 36.5347 28.4108 36.5778Z" fill="#FA9826"/>
<path d="M36.3225 35.2414H34.6212C32.5615 36.0556 29.9552 37.5401 27.9578 37.5829C27.8827 37.5855 27.8064 37.5855 27.7331 37.5855C25.7526 37.5866 24.4495 37.2482 22.7739 36.4717L20.7624 35.4417C20.394 35.3057 20.0252 35.1153 19.6699 34.8691C22.018 36.8473 24.6159 38.5774 28.0249 38.5792C28.0961 38.5792 28.1694 38.5771 28.2425 38.5758C30.5817 38.5236 33.2266 37.7327 35.2806 36.4421L35.293 36.4343C35.5617 36.2733 35.8304 36.0902 36.0836 35.8875C36.2414 35.7708 36.3499 35.5878 36.3499 35.3979C36.3491 35.3421 36.3376 35.2903 36.3225 35.2414Z" fill="#EA7B0C"/>
<path d="M36.5233 34.1387C36.6996 34.1374 36.8578 34.1502 36.967 34.1731C37.021 34.1849 37.0618 34.199 37.0832 34.2103C37.0921 34.2127 37.0977 34.2161 37.1011 34.2186C37.1056 34.2336 37.1126 34.273 37.1116 34.3276C37.1139 34.5359 37.0261 34.9229 36.9038 35.3004C36.7862 35.6776 36.642 36.0565 36.5476 36.3082C36.5242 36.3656 36.5094 36.4295 36.5094 36.4991C36.5073 36.5998 36.5487 36.7225 36.6372 36.8036C36.7227 36.8844 36.8335 36.9169 36.9261 36.9169H36.931C37.0701 36.9159 37.1882 36.8603 37.2897 36.7802C38.2503 35.9163 38.5854 34.5359 38.5986 33.7588L38.5969 33.635V33.6338C38.5871 33.429 38.5443 33.2724 38.4589 33.1431L38.4497 33.1301L38.4396 33.1175C38.3523 33.0222 38.2692 32.9866 38.1787 32.9471C37.9089 32.843 37.5165 32.7874 37.0443 32.7861C36.8533 32.7861 36.6505 32.7981 36.4424 32.8219V34.1405C36.4692 34.1398 36.4972 34.1387 36.5233 34.1387Z" fill="#EA7B0C"/>
<path d="M35.7501 34.8331C35.6521 34.8318 35.5509 34.8553 35.4573 34.8989C35.3518 34.9405 35.2442 34.9891 35.1424 35.0321L34.9926 35.095L34.7986 35.1724V35.1746C34.7407 35.1983 34.6819 35.2189 34.623 35.2418H36.3244C36.2473 34.9934 36.0079 34.8331 35.7501 34.8331Z" fill="#FA9826"/>
<path d="M22.7723 35.2413C21.9578 34.8639 21.1621 34.4368 20.3691 33.999V35.2413H22.7723Z" fill="#FA9826"/>
<path d="M35.9522 32.8757L35.5739 33.0019L35.5672 33.0054L35.3523 33.075V33.0842C35.1017 33.1885 34.8733 33.3182 34.6618 33.4722C34.5296 33.5706 34.4203 33.7017 34.4152 33.9021C34.4117 34.0108 34.4667 34.136 34.5584 34.21C34.6498 34.2843 34.7566 34.3096 34.8501 34.3096C34.8725 34.3096 34.8934 34.3088 34.9118 34.3049L34.9305 34.3037L34.9439 34.3013C35.1294 34.2623 35.3989 34.2356 35.715 34.1913C35.9578 34.1641 36.2118 34.1449 36.441 34.1408V32.8223C36.2813 32.8405 36.1173 32.8653 35.9535 32.9012L35.9522 32.8757Z" fill="#FA9826"/>
<path d="M38.5955 33.635V33.6338C38.5857 33.429 38.5429 33.2724 38.4576 33.1431L38.4483 33.1301L38.4382 33.1175C38.3509 33.0222 38.2678 32.9866 38.1774 32.9471C37.9075 32.843 37.5151 32.7874 37.043 32.7861C36.852 32.7861 36.6491 32.7981 36.441 32.8219C36.2813 32.8402 36.1173 32.8649 35.9535 32.9009L35.9522 32.8753L35.5739 33.0016L35.5672 33.0051L35.3523 33.0746V33.0839C35.1017 33.1881 34.8733 33.3179 34.6618 33.4718C34.5296 33.5703 34.4203 33.7014 34.4152 33.9018C34.4117 34.0105 34.4667 34.1357 34.5584 34.2097C34.6498 34.284 34.7566 34.3092 34.8501 34.3092C34.8725 34.3092 34.8934 34.3085 34.9118 34.3046L34.9305 34.3033L34.944 34.3009C35.1294 34.2619 35.3989 34.2352 35.715 34.191C35.9578 34.1638 36.2118 34.1446 36.441 34.1405C36.4677 34.1401 36.4958 34.139 36.5217 34.139C36.698 34.1377 36.8563 34.1505 36.9654 34.1734C37.0195 34.1852 37.0602 34.1993 37.0817 34.2106C37.0906 34.213 37.0962 34.2164 37.0996 34.2189C37.104 34.234 37.1111 34.2733 37.1101 34.328C37.1123 34.5362 37.0246 34.9232 36.9023 35.3007C36.7847 35.678 36.6405 36.0568 36.546 36.3085C36.5227 36.3659 36.5078 36.4298 36.5078 36.4994C36.5057 36.6001 36.5471 36.7228 36.6357 36.8039C36.7212 36.8848 36.832 36.9172 36.9245 36.9172H36.9295C37.0685 36.9162 37.1867 36.8606 37.2882 36.7805C38.2488 35.9166 38.5838 34.5362 38.5971 33.7591L38.5955 33.635Z" stroke="black" stroke-width="0.34965" stroke-miterlimit="10" stroke-linecap="round" stroke-linejoin="round"/>
<path d="M35.7476 34.8324C35.6496 34.8311 35.5484 34.8546 35.4548 34.8982C35.3493 34.9398 35.2417 34.9884 35.1399 35.0314L34.9901 35.0944L34.7961 35.1717V35.174C34.7382 35.1976 34.6794 35.2182 34.6205 35.2411C32.5608 36.0553 30.4075 36.5348 28.4106 36.5778C28.3356 36.5802 28.2588 36.5802 28.1859 36.5802C26.2054 36.5815 24.4488 36.0173 22.7732 35.2411C21.9587 34.8637 21.163 34.4366 20.37 33.9988C20.1346 33.8687 19.8994 33.738 19.664 33.6072C19.5714 33.5588 19.4752 33.5332 19.3823 33.5332C19.2634 33.5332 19.1405 33.5781 19.0516 33.6616C18.962 33.7461 18.9089 33.8679 18.9102 33.9919C18.9089 34.1526 18.9959 34.3008 19.1178 34.397C21.6118 36.5646 24.3467 38.5768 28.0243 38.5789C28.0954 38.5789 28.1688 38.5768 28.2418 38.5755C30.5811 38.5233 33.2259 37.7324 35.2799 36.4418L35.2924 36.434C35.561 36.273 35.8297 36.0898 36.0829 35.8872C36.2407 35.7705 36.3492 35.5875 36.3492 35.3976C36.3483 35.3418 36.3369 35.29 36.3217 35.2411C36.2448 34.9927 36.0054 34.8324 35.7476 34.8324Z" stroke="black" stroke-width="0.34965" stroke-miterlimit="10" stroke-linecap="round" stroke-linejoin="round"/>
</svg>
