<svg width="15" height="15" viewBox="0 0 15 15" fill="none" xmlns="http://www.w3.org/2000/svg">
<g clip-path="url(#clip0_1377_26446)">
<path d="M1.20654 4.9375V13.608C1.20654 13.9053 1.45427 14.1365 1.73503 14.1365H13.5269C13.8242 14.1365 14.0554 13.8888 14.0554 13.608V4.9375H1.20654ZM10.3065 8.25707C10.3065 8.55435 10.0587 8.78556 9.77797 8.78556H5.484C5.18672 8.78556 4.95551 8.53783 4.95551 8.25707V7.18358C4.95551 6.8863 5.20324 6.65509 5.484 6.65509H9.77797C10.0752 6.65509 10.3065 6.90282 10.3065 7.18358V8.25707Z" fill="black"/>
<path d="M14.2378 0.578125H1.02556C0.728284 0.578125 0.49707 0.825854 0.49707 1.10661V4.228H14.7828V1.12313C14.7663 0.825854 14.5351 0.578125 14.2378 0.578125Z" fill="black"/>
</g>
<defs>
<clipPath id="clip0_1377_26446">
<rect width="14.2857" height="14.2857" fill="white" transform="translate(0.5 0.213867)"/>
</clipPath>
</defs>
</svg>
