<svg width="18" height="11" viewBox="0 0 18 11" fill="none" xmlns="http://www.w3.org/2000/svg">
<path d="M2.14991 10.5002C1.85762 10.5002 1.56534 10.3925 1.33459 10.1618C0.888471 9.71567 0.888471 8.97727 1.33459 8.53115L6.25722 3.60848C6.50335 3.36234 6.8264 3.23927 7.18022 3.27004C7.51865 3.30081 7.82632 3.48541 8.0263 3.77769L9.70309 6.30056L15.1642 0.839471C15.6103 0.393353 16.3487 0.393353 16.7948 0.839471C17.2409 1.28559 17.2409 2.02399 16.7948 2.47011L10.3338 8.93112C10.0877 9.17725 9.76462 9.30032 9.4108 9.26955C9.07237 9.23878 8.7647 9.05418 8.56472 8.7619L6.88793 6.23903L2.96522 10.1618C2.73447 10.3925 2.44219 10.5002 2.14991 10.5002Z" fill="#15CA32" stroke="#F4F4F4" stroke-width="0.4"/>
<path d="M15.9939 5.88417C15.3631 5.88417 14.8401 5.36114 14.8401 4.73042V2.8075H12.9172C12.2865 2.8075 11.7634 2.28447 11.7634 1.65375C11.7634 1.02303 12.2865 0.5 12.9172 0.5H15.9939C16.6246 0.5 17.1476 1.02303 17.1476 1.65375V4.73042C17.1476 5.36114 16.6246 5.88417 15.9939 5.88417Z" fill="#15CA32" stroke="#F4F4F4" stroke-width="0.4"/>
</svg>
