<svg width="14" height="14" viewBox="0 0 14 14" fill="none" xmlns="http://www.w3.org/2000/svg">
<path fill-rule="evenodd" clip-rule="evenodd" d="M7.29932 0C3.67507 0 0.736816 2.93825 0.736816 6.5625C0.736816 10.1867 3.67507 13.125 7.29932 13.125C10.9236 13.125 13.8618 10.1867 13.8618 6.5625C13.8618 2.93825 10.9236 0 7.29932 0ZM8.1924 5.59942C7.44865 4.85567 6.27644 3.74675 5.37723 2.90383C5.96983 2.5919 6.62964 2.4294 7.29932 2.43046C9.58132 2.43046 11.4314 4.2805 11.4314 6.5625C11.4314 7.25725 11.2599 7.91146 10.9574 8.48575C10.092 7.5635 8.94432 6.35133 8.1924 5.59942ZM3.16727 6.5625C3.16727 5.86833 3.33848 5.21471 3.64065 4.64042C4.48357 5.53963 5.59248 6.71183 6.33623 7.45558C7.08815 8.2075 8.30032 9.35521 9.22257 10.2206C8.62967 10.5329 7.96944 10.6956 7.29932 10.6945C5.01732 10.6945 3.16727 8.8445 3.16727 6.5625Z" fill="black"/>
</svg>
