<svg width="10" height="11" viewBox="0 0 10 11" fill="none" xmlns="http://www.w3.org/2000/svg">
<path d="M2.8365 0.5C2.92933 0.5 3.01835 0.536875 3.08399 0.602513C3.14963 0.66815 3.1865 0.757174 3.1865 0.85V1.5045H6.945V0.8545C6.945 0.761674 6.98187 0.67265 7.04751 0.607013C7.11315 0.541375 7.20217 0.5045 7.295 0.5045C7.38783 0.5045 7.47685 0.541375 7.54249 0.607013C7.60812 0.67265 7.645 0.761674 7.645 0.8545V1.5045H9C9.26513 1.5045 9.51941 1.60979 9.70693 1.79722C9.89445 1.98464 9.99987 2.23887 10 2.504V9.5005C9.99987 9.76563 9.89445 10.0199 9.70693 10.2073C9.51941 10.3947 9.26513 10.5 9 10.5H1C0.73487 10.5 0.480592 10.3947 0.29307 10.2073C0.105548 10.0199 0.000132565 9.76563 0 9.5005L0 2.504C0.000132565 2.23887 0.105548 1.98464 0.29307 1.79722C0.480592 1.60979 0.73487 1.5045 1 1.5045H2.4865V0.8495C2.48663 0.756761 2.52357 0.667865 2.58919 0.602336C2.65481 0.536806 2.74376 0.5 2.8365 0.5ZM0.7 4.371V9.5005C0.7 9.5399 0.70776 9.57891 0.722836 9.6153C0.737913 9.6517 0.76001 9.68477 0.787868 9.71263C0.815726 9.74049 0.848797 9.76259 0.885195 9.77766C0.921593 9.79274 0.960603 9.8005 1 9.8005H9C9.0394 9.8005 9.07841 9.79274 9.11481 9.77766C9.1512 9.76259 9.18427 9.74049 9.21213 9.71263C9.23999 9.68477 9.26209 9.6517 9.27716 9.6153C9.29224 9.57891 9.3 9.5399 9.3 9.5005V4.378L0.7 4.371ZM3.3335 7.8095V8.6425H2.5V7.8095H3.3335ZM5.4165 7.8095V8.6425H4.5835V7.8095H5.4165ZM7.5 7.8095V8.6425H6.6665V7.8095H7.5ZM3.3335 5.821V6.654H2.5V5.821H3.3335ZM5.4165 5.821V6.654H4.5835V5.821H5.4165ZM7.5 5.821V6.654H6.6665V5.821H7.5ZM2.4865 2.204H1C0.960603 2.204 0.921593 2.21176 0.885195 2.22684C0.848797 2.24191 0.815726 2.26401 0.787868 2.29187C0.76001 2.31973 0.737913 2.3528 0.722836 2.38919C0.70776 2.42559 0.7 2.4646 0.7 2.504V3.6715L9.3 3.6785V2.504C9.3 2.4646 9.29224 2.42559 9.27716 2.38919C9.26209 2.3528 9.23999 2.31973 9.21213 2.29187C9.18427 2.26401 9.1512 2.24191 9.11481 2.22684C9.07841 2.21176 9.0394 2.204 9 2.204H7.645V2.6685C7.645 2.76133 7.60812 2.85035 7.54249 2.91599C7.47685 2.98163 7.38783 3.0185 7.295 3.0185C7.20217 3.0185 7.11315 2.98163 7.04751 2.91599C6.98187 2.85035 6.945 2.76133 6.945 2.6685V2.204H3.1865V2.664C3.1865 2.75683 3.14963 2.84585 3.08399 2.91149C3.01835 2.97713 2.92933 3.014 2.8365 3.014C2.74367 3.014 2.65465 2.97713 2.58901 2.91149C2.52337 2.84585 2.4865 2.75683 2.4865 2.664V2.204Z" fill="black"/>
</svg>
