<svg width="12" height="12" viewBox="0 0 12 12" fill="none" xmlns="http://www.w3.org/2000/svg">
<path d="M2.14146 2.57129C1.76258 2.57129 1.39922 2.7218 1.13131 2.98971C0.8634 3.25762 0.712891 3.62098 0.712891 3.99986V8.28557C0.712891 8.66446 0.8634 9.02782 1.13131 9.29573C1.39922 9.56364 1.76258 9.71415 2.14146 9.71415H6.07003C6.44891 9.71415 6.81228 9.56364 7.08019 9.29573C7.3481 9.02782 7.4986 8.66446 7.4986 8.28557V3.99986C7.4986 3.62098 7.3481 3.25762 7.08019 2.98971C6.81228 2.7218 6.44891 2.57129 6.07003 2.57129H2.14146ZM9.49384 9.357L8.21289 8.07605V4.20938L9.49384 2.92843C9.94337 2.47843 10.7129 2.797 10.7129 3.43319V8.85224C10.7129 9.48843 9.94337 9.807 9.49384 9.357Z" fill="black"/>
</svg>
