<svg width="23" height="23" viewBox="0 0 23 23" fill="none" xmlns="http://www.w3.org/2000/svg">
<path d="M7.00098 9.75049H3.00098C2.27186 9.74975 1.57282 9.45978 1.05725 8.94421C0.541687 8.42865 0.251718 7.72961 0.250977 7.00049V3.00049C0.251718 2.27137 0.541687 1.57233 1.05725 1.05676C1.57282 0.541199 2.27186 0.25123 3.00098 0.250488H7.00098C7.7301 0.25123 8.42914 0.541199 8.9447 1.05676C9.46027 1.57233 9.75024 2.27137 9.75098 3.00049V7.00049C9.75024 7.72961 9.46027 8.42865 8.9447 8.94421C8.42914 9.45978 7.7301 9.74975 7.00098 9.75049ZM3.00098 1.75049C2.66955 1.7508 2.35179 1.88259 2.11743 2.11694C1.88308 2.3513 1.75128 2.66906 1.75098 3.00049V7.00049C1.75128 7.33192 1.88308 7.64968 2.11743 7.88403C2.35179 8.11839 2.66955 8.25018 3.00098 8.25049H7.00098C7.3324 8.25018 7.65017 8.11839 7.88452 7.88403C8.11888 7.64968 8.25067 7.33192 8.25098 7.00049V3.00049C8.25067 2.66906 8.11888 2.3513 7.88452 2.11694C7.65017 1.88259 7.3324 1.7508 7.00098 1.75049H3.00098Z" fill="white"/>
<path d="M19.001 9.75049H15.001C14.2719 9.74975 13.5728 9.45978 13.0573 8.94421C12.5417 8.42865 12.2517 7.72961 12.251 7.00049V3.00049C12.2517 2.27137 12.5417 1.57233 13.0573 1.05676C13.5728 0.541199 14.2719 0.25123 15.001 0.250488H19.001C19.7301 0.25123 20.4291 0.541199 20.9447 1.05676C21.4603 1.57233 21.7502 2.27137 21.751 3.00049V7.00049C21.7502 7.72961 21.4603 8.42865 20.9447 8.94421C20.4291 9.45978 19.7301 9.74975 19.001 9.75049ZM15.001 1.75049C14.6696 1.7508 14.3518 1.88259 14.1174 2.11694C13.8831 2.3513 13.7513 2.66906 13.751 3.00049V7.00049C13.7513 7.33192 13.8831 7.64968 14.1174 7.88403C14.3518 8.11839 14.6696 8.25018 15.001 8.25049H19.001C19.3324 8.25018 19.6502 8.11839 19.8845 7.88403C20.1189 7.64968 20.2507 7.33192 20.251 7.00049V3.00049C20.2507 2.66906 20.1189 2.3513 19.8845 2.11694C19.6502 1.88259 19.3324 1.7508 19.001 1.75049H15.001Z" fill="white"/>
<path d="M7.00098 21.7505H3.00098C2.27186 21.7497 1.57282 21.4598 1.05725 20.9442C0.541687 20.4287 0.251718 19.7296 0.250977 19.0005V15.0005C0.251718 14.2714 0.541687 13.5723 1.05725 13.0568C1.57282 12.5412 2.27186 12.2512 3.00098 12.2505H7.00098C7.7301 12.2512 8.42914 12.5412 8.9447 13.0568C9.46027 13.5723 9.75024 14.2714 9.75098 15.0005V19.0005C9.75024 19.7296 9.46027 20.4287 8.9447 20.9442C8.42914 21.4598 7.7301 21.7497 7.00098 21.7505ZM3.00098 13.7505C2.66955 13.7508 2.35179 13.8826 2.11743 14.1169C1.88308 14.3513 1.75128 14.6691 1.75098 15.0005V19.0005C1.75128 19.3319 1.88308 19.6497 2.11743 19.884C2.35179 20.1184 2.66955 20.2502 3.00098 20.2505H7.00098C7.3324 20.2502 7.65017 20.1184 7.88452 19.884C8.11888 19.6497 8.25067 19.3319 8.25098 19.0005V15.0005C8.25067 14.6691 8.11888 14.3513 7.88452 14.1169C7.65017 13.8826 7.3324 13.7508 7.00098 13.7505H3.00098Z" fill="white"/>
<path d="M17.0002 22.3348C16.7705 22.3352 16.5428 22.2903 16.3305 22.2025C16.1181 22.1146 15.9253 21.9857 15.7629 21.823L12.177 18.2371C11.8492 17.9087 11.665 17.4637 11.665 16.9998C11.665 16.5358 11.8492 16.0908 12.177 15.7625L15.7629 12.1765C16.0913 11.8487 16.5363 11.6646 17.0002 11.6646C17.4642 11.6646 17.9092 11.8487 18.2375 12.1765L21.8235 15.7625C22.1513 16.0908 22.3354 16.5358 22.3354 16.9998C22.3354 17.4637 22.1513 17.9087 21.8235 18.2371L18.2375 21.823C18.0752 21.9857 17.8823 22.1146 17.67 22.2024C17.4577 22.2903 17.23 22.3352 17.0002 22.3348ZM17.0002 13.1639C16.9674 13.1638 16.9349 13.1702 16.9045 13.1828C16.8742 13.1953 16.8466 13.2138 16.8235 13.2371L13.2375 16.823C13.2143 16.8462 13.1959 16.8738 13.1833 16.9041C13.1708 16.9344 13.1643 16.9669 13.1643 16.9998C13.1643 17.0326 13.1708 17.0651 13.1833 17.0954C13.1959 17.1257 13.2143 17.1533 13.2375 17.1765L16.8235 20.7625C16.8467 20.7857 16.8742 20.8041 16.9046 20.8167C16.9349 20.8292 16.9674 20.8357 17.0002 20.8357C17.0331 20.8357 17.0656 20.8292 17.0959 20.8167C17.1262 20.8041 17.1538 20.7857 17.177 20.7625L20.7629 17.1765C20.7862 17.1533 20.8046 17.1257 20.8171 17.0954C20.8297 17.0651 20.8362 17.0326 20.8362 16.9998C20.8362 16.9669 20.8297 16.9344 20.8171 16.9041C20.8046 16.8738 20.7862 16.8462 20.7629 16.823L17.177 13.2371C17.1538 13.2138 17.1263 13.1953 17.096 13.1827C17.0656 13.1702 17.0331 13.1638 17.0002 13.1639Z" fill="white"/>
</svg>
