<svg  viewBox="0 0 26 24" fill="currenColor" stroke="currentColor" xmlns="http://www.w3.org/2000/svg">
<path d="M22.625 7.9295C23.6563 8.26083 24.375 9.2455 24.375 10.376V15.3763C24.375 16.7017 23.3868 17.8263 22.065 17.9348C21.6683 17.9663 21.2717 17.9955 20.875 18.0188V21.625L17.375 18.125C15.7953 18.125 14.232 18.0608 12.685 17.9348C12.3482 17.9076 12.0206 17.8115 11.7225 17.6525M22.625 7.9295C22.4447 7.87148 22.2584 7.83429 22.0697 7.81867C18.9453 7.5593 15.8047 7.5593 12.6803 7.81867C11.3608 7.92834 10.375 9.05183 10.375 10.376V15.3763C10.375 16.3528 10.9117 17.2197 11.7225 17.6525M22.625 7.9295V5.74317C22.625 3.852 21.281 2.21283 19.405 1.969C16.991 1.65609 14.5592 1.49943 12.125 1.5C9.6575 1.5 7.22733 1.65983 4.845 1.969C2.969 2.21283 1.625 3.852 1.625 5.74317V13.0068C1.625 14.898 2.969 16.5372 4.845 16.781C5.51817 16.8685 6.19483 16.9443 6.875 17.0073V22.5L11.7225 17.6525"    />
</svg>
