<svg width="19" height="17" viewBox="0 0 19 17" fill="none" xmlns="http://www.w3.org/2000/svg">
<path fill-rule="evenodd" clip-rule="evenodd" d="M2.31525 8.5C2.31525 5.11724 4.96388 2.37501 8.23114 2.37501C11.4984 2.37501 14.147 5.11724 14.147 8.5V9.01274L13.0543 7.88136L11.8593 9.11864L14.9921 12.3622L18.125 9.11864L16.93 7.88136L15.8372 9.01274V8.5C15.8372 4.15038 12.4323 0.625 8.23114 0.625C4.02999 0.625 0.625 4.15038 0.625 8.5C0.625 12.8496 4.02999 16.375 8.23114 16.375C10.0287 16.375 11.6835 15.7284 12.9858 14.6477L11.9285 13.2819C10.9152 14.1228 9.63064 14.625 8.23114 14.625C4.96388 14.625 2.31525 11.8828 2.31525 8.5ZM7.62501 6.70216V12H9.37499V5.00001H7.80446L5.48195 6.36378L6.22023 7.57887L7.62501 6.70216Z" fill="black"/>
</svg>
