<svg width="18" height="12" viewBox="0 0 18 12" fill="none" xmlns="http://www.w3.org/2000/svg">
<path d="M17.1257 4.65044L15.5882 11.4442C15.5577 11.5863 15.4786 11.7134 15.3645 11.8035C15.2504 11.8936 15.1085 11.9412 14.9632 11.9379H2.98818C2.84284 11.9412 2.70092 11.8936 2.58684 11.8035C2.47276 11.7134 2.39367 11.5863 2.36318 11.4442L0.87568 4.65044C0.850646 4.53564 0.858477 4.41612 0.898274 4.30557C0.93807 4.19502 1.00822 4.09793 1.10068 4.02544C1.19339 3.95268 1.30479 3.90762 1.42201 3.89546C1.53923 3.88329 1.6575 3.90452 1.76318 3.95669L5.41318 5.72544L8.43818 0.375437C8.49269 0.27925 8.57174 0.199245 8.66727 0.143583C8.76279 0.0879209 8.87137 0.0585938 8.98193 0.0585938C9.09249 0.0585938 9.20107 0.0879209 9.29659 0.143583C9.39212 0.199245 9.47117 0.27925 9.52568 0.375437L12.5507 5.73169L16.2257 3.95044C16.3321 3.89402 16.4526 3.86956 16.5726 3.88C16.6926 3.89044 16.807 3.93535 16.9021 4.0093C16.9972 4.08326 17.0689 4.18312 17.1086 4.29686C17.1482 4.41061 17.1542 4.53339 17.1257 4.65044Z" fill="white"/>
</svg>
