<svg width="29" height="29" viewBox="0 0 29 29" fill="none" xmlns="http://www.w3.org/2000/svg">
<rect x="0.427246" width="28.5714" height="28.5714" rx="8.57143" fill="#5960DF" fill-opacity="0.1"/>
<g clip-path="url(#clip0_1377_26688)">
<path d="M18.2888 7.88672H11.1459C10.396 7.88672 9.67687 8.1846 9.14664 8.71484C8.6164 9.24508 8.31851 9.96423 8.31851 10.7141V17.857C8.3157 17.8667 8.3157 17.877 8.31851 17.8867C8.32635 18.6314 8.6277 19.343 9.15708 19.8668C9.68647 20.3906 10.4012 20.6844 11.1459 20.6843H18.2888C19.0304 20.6829 19.7418 20.39 20.2696 19.8689C20.7974 19.3478 21.0993 18.6402 21.1102 17.8986V10.7141C21.1102 9.96526 20.8131 9.24701 20.2842 8.71694C19.7552 8.18688 19.0376 7.8883 18.2888 7.88672ZM20.2233 16.6665L17.7352 13.8212C17.5771 13.6529 17.3862 13.5188 17.1743 13.4271C16.9624 13.3355 16.7339 13.2881 16.503 13.2881C16.2721 13.2881 16.0437 13.3355 15.8318 13.4271C15.6199 13.5188 15.429 13.6529 15.2709 13.8212L13.5626 15.7736L13.003 15.0951C12.8489 14.9101 12.6559 14.7613 12.4378 14.6592C12.2198 14.5571 11.9819 14.5041 11.7411 14.5041C11.5003 14.5041 11.2625 14.5571 11.0444 14.6592C10.8264 14.7613 10.6334 14.9101 10.4792 15.0951L9.21137 16.6248V10.7141C9.21294 10.2015 9.41726 9.71037 9.77972 9.34792C10.1422 8.98547 10.6333 8.78115 11.1459 8.77958H18.2888C18.8013 8.78115 19.2925 8.98547 19.6549 9.34792C20.0174 9.71037 20.2217 10.2015 20.2233 10.7141V16.6665Z" fill="#5660E5"/>
<path d="M11.7388 12.5001C12.3963 12.5001 12.9293 11.9671 12.9293 11.3096C12.9293 10.6521 12.3963 10.1191 11.7388 10.1191C11.0813 10.1191 10.5483 10.6521 10.5483 11.3096C10.5483 11.9671 11.0813 12.5001 11.7388 12.5001Z" fill="#5660E5"/>
</g>
<defs>
<clipPath id="clip0_1377_26688">
<rect width="14.2857" height="14.2857" fill="white" transform="translate(7.57031 7.14258)"/>
</clipPath>
</defs>
</svg>
