<svg width="18" height="19" viewBox="0 0 18 19" fill="none" xmlns="http://www.w3.org/2000/svg">
<path d="M10.728 4.13278L12.867 6.27178M5.25 5.74978H3C2.80109 5.74978 2.61032 5.8288 2.46967 5.96945C2.32902 6.1101 2.25 6.30087 2.25 6.49978V13.9998C2.25 14.1987 2.32902 14.3895 2.46967 14.5301C2.61032 14.6708 2.80109 14.7498 3 14.7498H11.25C11.4489 14.7498 11.6397 14.6708 11.7803 14.5301C11.921 14.3895 12 14.1987 12 13.9998V10.6248M13.8068 3.19228C13.9473 3.33276 14.0588 3.49955 14.1348 3.68312C14.2109 3.86669 14.25 4.06345 14.25 4.26216C14.25 4.46086 14.2109 4.65762 14.1348 4.84119C14.0588 5.02476 13.9473 5.19155 13.8068 5.33203L8.67375 10.465L6 10.9998L6.53475 8.32603L11.6678 3.19303C11.8081 3.05243 11.9748 2.94089 12.1583 2.86479C12.3419 2.78868 12.5386 2.74951 12.7372 2.74951C12.9359 2.74951 13.1326 2.78868 13.3162 2.86479C13.4997 2.94089 13.6664 3.05243 13.8068 3.19303V3.19228Z" stroke="black" stroke-width="1.5" stroke-linecap="round" stroke-linejoin="round"/>
</svg>
