<svg width="14" height="16" viewBox="0 0 14 16" fill="none" xmlns="http://www.w3.org/2000/svg">
<path fill-rule="evenodd" clip-rule="evenodd" d="M12.1222 1.89869C11.9729 1.74945 11.7958 1.63107 11.6008 1.5503C11.4058 1.46953 11.1968 1.42796 10.9857 1.42796C10.7747 1.42796 10.5657 1.46953 10.3707 1.5503C10.1757 1.63107 9.99856 1.74945 9.84932 1.89869L2.03503 9.71297C1.53273 10.2154 1.25058 10.8967 1.25065 11.6072C1.25072 12.3176 1.533 12.9989 2.03539 13.5012C2.53779 14.0035 3.21914 14.2856 3.92957 14.2856C4.64 14.2855 5.32131 14.0032 5.82361 13.5008L11.3186 8.00583C11.4202 7.9112 11.5545 7.85969 11.6933 7.86213C11.8321 7.86458 11.9645 7.92081 12.0626 8.01896C12.1608 8.11711 12.217 8.24953 12.2194 8.38832C12.2219 8.5271 12.1704 8.66142 12.0757 8.76297L6.58075 14.258C6.23421 14.6136 5.8205 14.8968 5.36363 15.0913C4.90675 15.2858 4.4158 15.3876 3.91927 15.3908C3.42275 15.394 2.93052 15.2985 2.47117 15.11C2.01181 14.9215 1.59448 14.6436 1.24337 14.2925C0.892263 13.9414 0.614381 13.5241 0.425848 13.0647C0.237316 12.6053 0.141886 12.1131 0.145098 11.6166C0.14831 11.1201 0.250098 10.6291 0.444557 10.1722C0.639016 9.71536 0.922273 9.30165 1.27789 8.95512L9.09146 1.14083C9.59386 0.638531 10.2752 0.356378 10.9856 0.356445C11.6961 0.356512 12.3774 0.638793 12.8797 1.14119C13.382 1.64358 13.6641 2.32494 13.6641 3.03537C13.664 3.7458 13.3817 4.4271 12.8793 4.9294L5.07003 12.7387L5.06432 12.7444L5.05932 12.7494L5.05789 12.7508L5.05575 12.7523C4.75029 13.0374 4.34581 13.1923 3.92805 13.1842C3.5103 13.1761 3.11211 13.0057 2.81791 12.709C2.52372 12.4122 2.35664 12.0126 2.3521 11.5948C2.34756 11.177 2.50592 10.7739 2.79361 10.4708L8.37218 4.89226C8.47317 4.79463 8.60847 4.74056 8.74893 4.74172C8.88939 4.74287 9.02378 4.79915 9.12316 4.89843C9.22253 4.99771 9.27893 5.13205 9.28022 5.27251C9.28151 5.41297 9.22757 5.54832 9.13003 5.6494L3.55146 11.228C3.4503 11.3278 3.39294 11.4637 3.39201 11.6059C3.39107 11.748 3.44663 11.8847 3.54646 11.9858C3.6463 12.087 3.78223 12.1444 3.92436 12.1453C4.06648 12.1462 4.20316 12.0907 4.30432 11.9908L12.1222 4.17083C12.2714 4.02159 12.3898 3.84442 12.4706 3.64943C12.5513 3.45445 12.5929 3.24546 12.5929 3.0344C12.5929 2.82335 12.5513 2.61436 12.4706 2.41937C12.3898 2.22438 12.2714 2.04793 12.1222 1.89869Z" fill="black"/>
</svg>
