<svg width="15" height="15" viewBox="0 0 15 15" fill="none" xmlns="http://www.w3.org/2000/svg">
<path d="M11.5186 8.16085H12.4114C12.5298 8.16085 12.6434 8.11382 12.7271 8.0301C12.8108 7.94638 12.8578 7.83283 12.8578 7.71443C12.8578 7.59602 12.8108 7.48247 12.7271 7.39875C12.6434 7.31503 12.5298 7.268 12.4114 7.268H11.5186C11.4002 7.268 11.2866 7.31503 11.2029 7.39875C11.1192 7.48247 11.0721 7.59602 11.0721 7.71443C11.0721 7.83283 11.1192 7.94638 11.2029 8.0301C11.2866 8.11382 11.4002 8.16085 11.5186 8.16085ZM7.5007 4.143C7.5007 4.0246 7.54773 3.91105 7.63145 3.82732C7.71518 3.7436 7.82873 3.69657 7.94713 3.69657H12.4114C12.5298 3.69657 12.6434 3.7436 12.7271 3.82732C12.8108 3.91105 12.8578 4.0246 12.8578 4.143C12.8578 4.2614 12.8108 4.37495 12.7271 4.45867C12.6434 4.54239 12.5298 4.58943 12.4114 4.58943H7.94713C7.82873 4.58943 7.71518 4.54239 7.63145 4.45867C7.54773 4.37495 7.5007 4.2614 7.5007 4.143ZM7.5007 11.2859C7.5007 11.1675 7.54773 11.0539 7.63145 10.9702C7.71518 10.8865 7.82873 10.8394 7.94713 10.8394H12.4114C12.5298 10.8394 12.6434 10.8865 12.7271 10.9702C12.8108 11.0539 12.8578 11.1675 12.8578 11.2859C12.8578 11.4043 12.8108 11.5178 12.7271 11.6015C12.6434 11.6852 12.5298 11.7323 12.4114 11.7323H7.94713C7.82873 11.7323 7.71518 11.6852 7.63145 11.6015C7.54773 11.5178 7.5007 11.4043 7.5007 11.2859ZM2.58998 4.58943H3.48284C3.60124 4.58943 3.71479 4.54239 3.79851 4.45867C3.88223 4.37495 3.92927 4.2614 3.92927 4.143C3.92927 4.0246 3.88223 3.91105 3.79851 3.82732C3.71479 3.7436 3.60124 3.69657 3.48284 3.69657H2.58998C2.47158 3.69657 2.35803 3.7436 2.27431 3.82732C2.19059 3.91105 2.14355 4.0246 2.14355 4.143C2.14355 4.2614 2.19059 4.37495 2.27431 4.45867C2.35803 4.54239 2.47158 4.58943 2.58998 4.58943ZM3.48284 11.7323H2.58998C2.47158 11.7323 2.35803 11.6852 2.27431 11.6015C2.19059 11.5178 2.14355 11.4043 2.14355 11.2859C2.14355 11.1675 2.19059 11.0539 2.27431 10.9702C2.35803 10.8865 2.47158 10.8394 2.58998 10.8394H3.48284C3.60124 10.8394 3.71479 10.8865 3.79851 10.9702C3.88223 11.0539 3.92927 11.1675 3.92927 11.2859C3.92927 11.4043 3.88223 11.5178 3.79851 11.6015C3.71479 11.6852 3.60124 11.7323 3.48284 11.7323ZM2.14355 7.71443C2.14355 7.59602 2.19059 7.48247 2.27431 7.39875C2.35803 7.31503 2.47158 7.268 2.58998 7.268H7.05427C7.17267 7.268 7.28622 7.31503 7.36994 7.39875C7.45366 7.48247 7.5007 7.59602 7.5007 7.71443C7.5007 7.83283 7.45366 7.94638 7.36994 8.0301C7.28622 8.11382 7.17267 8.16085 7.05427 8.16085H2.58998C2.47158 8.16085 2.35803 8.11382 2.27431 8.0301C2.19059 7.94638 2.14355 7.83283 2.14355 7.71443ZM5.71498 2.80371C5.35978 2.80371 5.01913 2.94481 4.76797 3.19598C4.5168 3.44714 4.3757 3.7878 4.3757 4.143C4.3757 4.4982 4.5168 4.83885 4.76797 5.09001C5.01913 5.34118 5.35978 5.48228 5.71498 5.48228C6.07018 5.48228 6.41084 5.34118 6.662 5.09001C6.91317 4.83885 7.05427 4.4982 7.05427 4.143C7.05427 3.7878 6.91317 3.44714 6.662 3.19598C6.41084 2.94481 6.07018 2.80371 5.71498 2.80371ZM7.94713 7.71443C7.94713 7.35922 8.08823 7.01857 8.33939 6.76741C8.59056 6.51624 8.93121 6.37514 9.28641 6.37514C9.64161 6.37514 9.98226 6.51624 10.2334 6.76741C10.4846 7.01857 10.6257 7.35922 10.6257 7.71443C10.6257 8.06963 10.4846 8.41028 10.2334 8.66144C9.98226 8.91261 9.64161 9.05371 9.28641 9.05371C8.93121 9.05371 8.59056 8.91261 8.33939 8.66144C8.08823 8.41028 7.94713 8.06963 7.94713 7.71443ZM5.71498 9.94657C5.35978 9.94657 5.01913 10.0877 4.76797 10.3388C4.5168 10.59 4.3757 10.9307 4.3757 11.2859C4.3757 11.6411 4.5168 11.9817 4.76797 12.2329C5.01913 12.484 5.35978 12.6251 5.71498 12.6251C6.07018 12.6251 6.41084 12.484 6.662 12.2329C6.91317 11.9817 7.05427 11.6411 7.05427 11.2859C7.05427 10.9307 6.91317 10.59 6.662 10.3388C6.41084 10.0877 6.07018 9.94657 5.71498 9.94657Z" fill="black" fill-opacity="0.5"/>
</svg>
