<svg width="24" height="20" viewBox="0 0 24 20" fill="none" xmlns="http://www.w3.org/2000/svg">
<path d="M0.119141 8.03516C0.258248 7.92183 0.442244 7.876 0.617188 7.91113L4.68945 8.72559C5.26111 8.83958 5.69476 9.24923 5.87695 9.76367C6.46339 9.60764 7.43592 9.39942 8.5 9.39941C9.49248 9.39941 10.2387 9.76139 11.0068 10.1318C11.6305 10.433 12.2659 10.7381 13.1191 10.9111C14.0686 11.104 15.0159 11.3303 15.7432 11.6914C16.4333 12.0342 16.9441 12.5093 17.0576 13.2109C17.5669 13.066 18.2775 12.8722 18.9834 12.7109C19.7392 12.5383 20.4993 12.3994 21 12.3994C21.8973 12.3994 22.6681 12.6083 23.2178 12.9746C23.7693 13.3423 24.0996 13.8716 24.0996 14.5C24.0996 14.7378 23.9591 14.9538 23.7412 15.0498C23.3746 15.2103 22.8077 15.4892 22.1182 15.8281C20.798 16.4772 19.1366 17.2938 17.5625 17.9482C16.7753 18.2755 16.0074 18.5629 15.3145 18.7686C14.623 18.9738 13.9992 19.0996 13.5 19.0996C12.9356 19.0996 12.1882 18.9458 11.374 18.7109C10.5579 18.4755 9.66661 18.1565 8.81055 17.8213C7.18386 17.1844 5.67942 16.487 5.05176 16.1895C4.79197 16.7243 4.25777 17.0996 3.63281 17.0996H0.5C0.168437 17.0996 -0.0995543 16.8316 -0.0996094 16.5V8.5C-0.0996094 8.31999 -0.0188526 8.15015 0.119141 8.03613V8.03516ZM8.5 10.5996C7.35371 10.5996 6.30201 10.8811 5.89062 11.0059L5.32129 14.9873C6.17722 15.4015 7.7535 16.1199 9.3457 16.7393C10.1603 17.0561 10.9781 17.3473 11.7041 17.5586C12.4325 17.7706 13.0605 17.8994 13.5 17.8994C13.9111 17.8994 14.4707 17.7803 15.123 17.5771C15.7734 17.3746 16.5084 17.0919 17.2666 16.7715C18.7829 16.1307 20.3868 15.342 21.5889 14.751C22.0432 14.5282 22.447 14.3294 22.7783 14.1719C22.6514 14.0113 22.4295 13.8757 22.1416 13.7764C21.8058 13.6605 21.3986 13.5996 21 13.5996C20.5322 13.5996 19.6767 13.7734 18.8174 13.9844C17.9625 14.1943 17.1171 14.4378 16.6768 14.5732C16.6492 14.5817 16.6239 14.5841 16.6055 14.585C16.602 14.5851 16.5985 14.5849 16.5957 14.585C16.5914 14.5893 16.5864 14.5942 16.5811 14.5996C16.5664 14.6143 16.5479 14.6326 16.5254 14.6494C16.1141 14.957 15.4915 15.1025 14.6699 15.1025C13.407 15.1025 11.635 14.7585 9.3291 14.0752C9.01136 13.9808 8.8311 13.6465 8.9248 13.3291L8.9707 13.2168C9.10209 12.971 9.39097 12.8434 9.66992 12.9238L9.6709 12.9248C12 13.616 13.4685 13.8593 14.3906 13.9023C15.3154 13.9455 15.6775 13.7858 15.8086 13.6875C15.8468 13.6589 15.8676 13.6341 15.8799 13.6094C15.8923 13.5842 15.9004 13.5508 15.9004 13.5C15.9004 13.2522 15.717 13.0099 15.2217 12.7686C14.7304 12.5293 13.9657 12.3078 12.8809 12.0879C11.8782 11.884 11.1331 11.5255 10.4854 11.2129C9.76092 10.8639 9.21189 10.5996 8.5 10.5996ZM1.09961 15.8994H3.63281C3.83009 15.8994 4.00116 15.752 4.0293 15.5566L4.77246 10.3516C4.80285 10.1418 4.66303 9.94426 4.45508 9.90234L1.09961 9.23145V15.8994Z" fill="white" stroke="white" stroke-width="0.2"/>
<path d="M18 0.900391C19.7095 0.900399 21.0996 2.29046 21.0996 4C21.0996 4.82786 20.7765 5.6058 20.1914 6.19141V6.19238L16.4219 9.92578C16.3055 10.042 16.152 10.0996 16 10.0996C15.886 10.0996 15.7713 10.0672 15.6719 10.002L15.5781 9.92578L11.8105 6.19336C11.2235 5.60631 10.9004 4.8279 10.9004 4C10.9004 2.29046 12.2905 0.900391 14 0.900391C14.7452 0.900391 15.4456 1.16559 16 1.6416C16.5544 1.16561 17.2549 0.900391 18 0.900391ZM18 2.09961C17.4752 2.09961 16.9864 2.31479 16.627 2.69824L16.4814 2.87207C16.3647 3.0279 16.1792 3.10254 16 3.10254C15.8431 3.10254 15.6816 3.0454 15.5654 2.92676L15.5186 2.87207C15.1522 2.38026 14.5995 2.09961 14 2.09961C12.9527 2.09961 12.0996 2.95223 12.0996 4C12.0996 4.50741 12.2974 4.98361 12.6562 5.34277L16 8.65527L19.3457 5.3418L19.4717 5.20215C19.7487 4.8644 19.9004 4.44418 19.9004 4C19.9004 2.95219 19.0473 2.09962 18 2.09961Z" fill="white" stroke="white" stroke-width="0.2"/>
</svg>
