<svg  viewBox="0 0 28 28" fill="currentColor" stroke="currentColor"  xmlns="http://www.w3.org/2000/svg">
<path fill-rule="evenodd" clip-rule="evenodd" d="M6.56142 5.16155C4.62594 6.04626 3.20801 8.15059 3.20801 10.6599C3.20801 13.2236 4.25709 15.1996 5.76101 16.8931C7.00052 18.2888 8.50098 19.4456 9.96432 20.5737C10.3119 20.8416 10.6573 21.108 10.9967 21.3755C11.6104 21.8593 12.1579 22.2839 12.6856 22.5923C13.2135 22.9008 13.6385 23.0417 13.9997 23.0417C14.3609 23.0417 14.7858 22.9008 15.3138 22.5923C15.8415 22.2839 16.3889 21.8593 17.0026 21.3755C17.342 21.108 17.6875 20.8416 18.035 20.5737C19.4984 19.4456 20.9988 18.2888 22.2383 16.8931C23.7423 15.1996 24.7913 13.2236 24.7913 10.6599C24.7913 8.15059 23.3734 6.04626 21.4379 5.16155C19.5576 4.30204 17.0311 4.52966 14.6301 7.02418C14.4651 7.19556 14.2375 7.29239 13.9997 7.29239C13.7618 7.29239 13.5342 7.19556 13.3692 7.02418C10.9683 4.52966 8.44175 4.30204 6.56142 5.16155ZM13.9997 5.20194C11.3023 2.7886 8.2818 2.451 5.8339 3.56994C3.24851 4.75173 1.45801 7.49586 1.45801 10.6599C1.45801 13.7697 2.75359 16.142 4.45251 18.0551C5.81303 19.5871 7.47827 20.8693 8.94897 22.0017C9.28236 22.2584 9.60575 22.5074 9.91333 22.7498C10.5109 23.2209 11.1525 23.7233 11.8026 24.1032C12.4525 24.483 13.1942 24.7917 13.9997 24.7917C14.8051 24.7917 15.5468 24.483 16.1967 24.1032C16.8469 23.7233 17.4884 23.2209 18.086 22.7498C18.3936 22.5074 18.717 22.2584 19.0504 22.0017C20.5211 20.8693 22.1863 19.5871 23.5468 18.0551C25.2458 16.142 26.5413 13.7697 26.5413 10.6599C26.5413 7.49586 24.7508 4.75173 22.1655 3.56994C19.7176 2.451 16.6971 2.7886 13.9997 5.20194Z"/>
</svg>
