<svg width="18" height="18" viewBox="0 0 18 18" fill="none" xmlns="http://www.w3.org/2000/svg">
<path d="M11.0531 7.80658C11.0531 8.35073 10.8369 8.87258 10.4522 9.25735C10.0674 9.64212 9.54555 9.85828 9.00141 9.85828C8.45726 9.85828 7.9354 9.64212 7.55064 9.25735C7.16587 8.87258 6.94971 8.35073 6.94971 7.80658C6.94971 7.26244 7.16587 6.74058 7.55064 6.35581C7.9354 5.97104 8.45726 5.75488 9.00141 5.75488C9.54555 5.75488 10.0674 5.97104 10.4522 6.35581C10.8369 6.74058 11.0531 7.26244 11.0531 7.80658Z" stroke="black" stroke-opacity="0.5" stroke-width="1.02585" stroke-linecap="round" stroke-linejoin="round"/>
<path d="M14.1315 7.80698C14.1315 12.6914 9.00229 15.5008 9.00229 15.5008C9.00229 15.5008 3.87305 12.6914 3.87305 7.80698C3.87305 6.44662 4.41345 5.14198 5.37537 4.18006C6.33729 3.21814 7.64193 2.67773 9.00229 2.67773C10.3627 2.67773 11.6673 3.21814 12.6292 4.18006C13.5911 5.14198 14.1315 6.44662 14.1315 7.80698Z" stroke="black" stroke-opacity="0.5" stroke-width="1.02585" stroke-linecap="round" stroke-linejoin="round"/>
</svg>
