<svg width="23" height="16" viewBox="0 0 23 16" fill="none" xmlns="http://www.w3.org/2000/svg">
<path d="M7.625 1.875H21.625M7.625 8H21.625M7.625 14.125H21.625M2.375 1.875H2.38317V1.88433H2.375V1.875ZM2.8125 1.875C2.8125 1.99103 2.76641 2.10231 2.68436 2.18436C2.60231 2.26641 2.49103 2.3125 2.375 2.3125C2.25897 2.3125 2.14769 2.26641 2.06564 2.18436C1.98359 2.10231 1.9375 1.99103 1.9375 1.875C1.9375 1.75897 1.98359 1.64769 2.06564 1.56564C2.14769 1.48359 2.25897 1.4375 2.375 1.4375C2.49103 1.4375 2.60231 1.48359 2.68436 1.56564C2.76641 1.64769 2.8125 1.75897 2.8125 1.875ZM2.375 8H2.38317V8.00933H2.375V8ZM2.8125 8C2.8125 8.11603 2.76641 8.22731 2.68436 8.30936C2.60231 8.39141 2.49103 8.4375 2.375 8.4375C2.25897 8.4375 2.14769 8.39141 2.06564 8.30936C1.98359 8.22731 1.9375 8.11603 1.9375 8C1.9375 7.88397 1.98359 7.77269 2.06564 7.69064C2.14769 7.60859 2.25897 7.5625 2.375 7.5625C2.49103 7.5625 2.60231 7.60859 2.68436 7.69064C2.76641 7.77269 2.8125 7.88397 2.8125 8ZM2.375 14.125H2.38317V14.1343H2.375V14.125ZM2.8125 14.125C2.8125 14.241 2.76641 14.3523 2.68436 14.4344C2.60231 14.5164 2.49103 14.5625 2.375 14.5625C2.25897 14.5625 2.14769 14.5164 2.06564 14.4344C1.98359 14.3523 1.9375 14.241 1.9375 14.125C1.9375 14.009 1.98359 13.8977 2.06564 13.8156C2.14769 13.7336 2.25897 13.6875 2.375 13.6875C2.49103 13.6875 2.60231 13.7336 2.68436 13.8156C2.76641 13.8977 2.8125 14.009 2.8125 14.125Z" stroke="white" stroke-opacity="0.6" stroke-width="2" stroke-linecap="round" stroke-linejoin="round"/>
</svg>
