<svg width="12" height="12" viewBox="0 0 12 12" fill="none" xmlns="http://www.w3.org/2000/svg">
<path d="M6.14376 3.643C6.04904 3.643 5.9582 3.60537 5.89123 3.53839C5.82425 3.47141 5.78662 3.38057 5.78662 3.28585C5.78662 3.19113 5.82425 3.10029 5.89123 3.03332C5.9582 2.96634 6.04904 2.92871 6.14376 2.92871C6.23848 2.92871 6.32932 2.96634 6.3963 3.03332C6.46328 3.10029 6.50091 3.19113 6.50091 3.28585C6.50091 3.38057 6.46328 3.47141 6.3963 3.53839C6.32932 3.60537 6.23848 3.643 6.14376 3.643ZM6.14376 6.50014C6.04904 6.50014 5.9582 6.46251 5.89123 6.39553C5.82425 6.32856 5.78662 6.23772 5.78662 6.143C5.78662 6.04828 5.82425 5.95744 5.89123 5.89046C5.9582 5.82348 6.04904 5.78585 6.14376 5.78585C6.23848 5.78585 6.32932 5.82348 6.3963 5.89046C6.46328 5.95744 6.50091 6.04828 6.50091 6.143C6.50091 6.23772 6.46328 6.32856 6.3963 6.39553C6.32932 6.46251 6.23848 6.50014 6.14376 6.50014ZM6.14376 9.35728C6.04904 9.35728 5.9582 9.31965 5.89123 9.25268C5.82425 9.1857 5.78662 9.09486 5.78662 9.00014C5.78662 8.90542 5.82425 8.81458 5.89123 8.7476C5.9582 8.68062 6.04904 8.643 6.14376 8.643C6.23848 8.643 6.32932 8.68062 6.3963 8.7476C6.46328 8.81458 6.50091 8.90542 6.50091 9.00014C6.50091 9.09486 6.46328 9.1857 6.3963 9.25268C6.32932 9.31965 6.23848 9.35728 6.14376 9.35728Z" fill="black" stroke="black" stroke-width="1.07143" stroke-linecap="round" stroke-linejoin="round"/>
</svg>
