<svg width="21" height="18" viewBox="0 0 21 18" fill="none" xmlns="http://www.w3.org/2000/svg">
<path fill-rule="evenodd" clip-rule="evenodd" d="M19.1009 5.50353C19.0442 5.49996 18.9825 5.49998 18.9186 5.5L18.9026 5.50001H16.3941C14.3264 5.50001 12.5572 7.12757 12.5572 9.25001C12.5572 11.3724 14.3264 13 16.3941 13H18.9026L18.9186 13C18.9825 13 19.0442 13.0001 19.1009 12.9965C19.9408 12.9434 20.6835 12.2862 20.746 11.3682C20.7501 11.308 20.75 11.2431 20.75 11.183L20.75 11.1667V7.33334L20.75 7.31702C20.75 7.25688 20.7501 7.19199 20.746 7.1318C20.6835 6.21381 19.9408 5.55657 19.1009 5.50353ZM16.1717 10.25C16.704 10.25 17.1355 9.80229 17.1355 9.25C17.1355 8.69771 16.704 8.25 16.1717 8.25C15.6394 8.25 15.2078 8.69771 15.2078 9.25C15.2078 9.80229 15.6394 10.25 16.1717 10.25Z" fill="white"/>
<path fill-rule="evenodd" clip-rule="evenodd" d="M18.9179 14.5C19.067 14.4961 19.1799 14.6342 19.1394 14.7778C18.9387 15.4902 18.62 16.0975 18.1088 16.6088C17.3604 17.3571 16.4114 17.6892 15.239 17.8469C14.0998 18 12.6442 18 10.8064 18H8.69359C6.85583 18 5.40019 18 4.26098 17.8469C3.08856 17.6892 2.13961 17.3571 1.39124 16.6088C0.642881 15.8604 0.310764 14.9114 0.153135 13.739C-2.8044e-05 12.5998 -1.54718e-05 11.1442 3.23433e-07 9.30642V9.19358C-1.5591e-05 7.35583 -2.82824e-05 5.90019 0.153135 4.76098C0.310763 3.58856 0.64288 2.63961 1.39124 1.89124C2.13961 1.14288 3.08856 0.810764 4.26098 0.653136C5.40019 0.499972 6.85582 0.499985 8.69358 0.5L10.8064 0.5C12.6442 0.499984 14.0998 0.499972 15.239 0.653135C16.4114 0.810763 17.3604 1.14288 18.1088 1.89124C18.62 2.40252 18.9386 3.00974 19.1394 3.72218C19.1799 3.86575 19.067 4.00387 18.9179 4L16.394 4.00001C13.5574 4.00001 11.0571 6.24091 11.0571 9.25001C11.0571 12.2591 13.5574 14.5 16.394 14.5L18.9179 14.5ZM3.75 4.5C3.33579 4.5 3 4.83579 3 5.25C3 5.66421 3.33579 6 3.75 6H7.75C8.16421 6 8.5 5.66421 8.5 5.25C8.5 4.83579 8.16421 4.5 7.75 4.5H3.75Z" fill="white"/>
</svg>
