<svg width="24" height="24" viewBox="0 0 24 24" fill="none" xmlns="http://www.w3.org/2000/svg">
<path d="M12.8385 9.20473C11.7967 9.35198 10.8868 10.33 10.8781 10.3388C10.865 10.3524 10.8502 10.3642 10.8341 10.374C9.41871 11.2926 8.62091 10.5937 8.58794 10.552C7.68245 9.7366 8.51322 8.36957 8.54838 8.31242C8.91929 7.69594 9.36844 7.13006 9.88465 6.62891H6.04069L4.37256 12.1322C4.39048 12.1421 4.40678 12.1547 4.42091 12.1696C7.00992 15.097 10.4473 17.6948 11.8033 18.6751C11.9445 18.7794 12.1199 18.8263 12.2943 18.8062C12.4687 18.786 12.6289 18.7004 12.7425 18.5667C12.8562 18.4329 12.9148 18.261 12.9065 18.0857C12.8982 17.9104 12.8236 17.7447 12.6978 17.6223L10.8319 15.7564C10.791 15.7152 10.768 15.6595 10.768 15.6014C10.768 15.5434 10.791 15.4877 10.8319 15.4465C10.8523 15.4259 10.8766 15.4095 10.9034 15.3984C10.9302 15.3872 10.9589 15.3815 10.9879 15.3815C11.017 15.3815 11.0457 15.3872 11.0725 15.3984C11.0992 15.4095 11.1236 15.4259 11.144 15.4465L12.1374 16.4399L13.0165 17.319L13.4561 17.7696C13.6138 17.9231 13.8253 18.0089 14.0454 18.0083C14.2656 18.0078 14.4767 17.921 14.6336 17.7667C14.7906 17.6124 14.8808 17.4027 14.885 17.1826C14.8892 16.9625 14.807 16.7496 14.6561 16.5893L12.944 14.8025L12.6187 14.4663C12.5981 14.4458 12.5818 14.4215 12.5706 14.3947C12.5594 14.368 12.5537 14.3392 12.5537 14.3102C12.5537 14.2812 12.5594 14.2525 12.5706 14.2257C12.5818 14.1989 12.5981 14.1746 12.6187 14.1542C12.6391 14.1336 12.6635 14.1172 12.6902 14.1061C12.717 14.0949 12.7457 14.0892 12.7748 14.0892C12.8038 14.0892 12.8325 14.0949 12.8593 14.1061C12.8861 14.1172 12.9104 14.1336 12.9308 14.1542L15.4297 16.7476C15.5507 16.8673 15.7039 16.9494 15.8706 16.9838C16.0374 17.0181 16.2105 17.0034 16.369 16.9412C16.5275 16.8791 16.6646 16.7722 16.7635 16.6337C16.8624 16.4952 16.919 16.3309 16.9264 16.1608C16.9301 16.0409 16.9085 15.9217 16.863 15.8108C16.8176 15.6998 16.7493 15.5997 16.6627 15.5168L15.1638 14.0663L14.1198 13.0531C14.0966 13.0337 14.0776 13.0097 14.064 12.9826C14.0505 12.9556 14.0427 12.926 14.0411 12.8958C14.0396 12.8656 14.0442 12.8353 14.0549 12.807C14.0655 12.7787 14.0819 12.7528 14.103 12.7311C14.1241 12.7094 14.1495 12.6923 14.1775 12.6809C14.2055 12.6694 14.2356 12.6639 14.2658 12.6646C14.2961 12.6653 14.3259 12.6723 14.3533 12.6851C14.3808 12.6978 14.4053 12.7161 14.4253 12.7388L17.3923 15.6113C17.4702 15.6912 17.5633 15.7546 17.6663 15.7975C17.7692 15.8405 17.8798 15.8621 17.9914 15.8612C18.1029 15.8603 18.2131 15.8368 18.3153 15.7921C18.4175 15.7474 18.5096 15.6826 18.5861 15.6013C18.6626 15.5201 18.7218 15.4243 18.7602 15.3195C18.7987 15.2148 18.8155 15.1034 18.8097 14.992C18.8039 14.8806 18.7756 14.7715 18.7266 14.6714C18.6775 14.5712 18.6087 14.482 18.5242 14.4091L12.8385 9.20473Z" fill="black"/>
<path d="M5.37003 5.34147C4.22906 4.82851 2.98494 4.5863 1.73486 4.63377V13.2536H3.07772C3.22104 13.2539 3.36057 13.2075 3.47518 13.1215C3.58979 13.0354 3.67323 12.9144 3.71289 12.7766L5.73047 6.13268C5.77658 5.97951 5.76545 5.81481 5.69914 5.66924C5.63283 5.52368 5.51586 5.40719 5.37003 5.34147Z" fill="black"/>
<path d="M13.5531 5.76767C13.0791 5.57256 12.5495 5.56081 12.0674 5.7347C11.2256 6.04239 9.99703 6.78085 8.91791 8.54349C8.91791 8.55668 8.24318 9.64239 8.87835 10.227C8.90033 10.2468 9.46736 10.7215 10.5663 10.0204C10.7245 9.85558 11.7157 8.86217 12.8871 8.75448C12.9174 8.75194 12.9479 8.75571 12.9766 8.76554C13.0054 8.77538 13.0318 8.79107 13.0542 8.81162L18.8146 14.0863C18.841 14.1105 18.8652 14.1369 18.8893 14.1633C19.5487 14.0622 19.9882 13.46 20.1157 13.2402L18.0278 7.55008L13.5531 5.76767Z" fill="black"/>
<path d="M22.3956 5.68185C21.142 5.67353 19.8987 5.90787 18.7341 6.37197C18.5775 6.43908 18.4529 6.56422 18.3866 6.72114C18.3202 6.87807 18.3171 7.0546 18.3781 7.21372L20.8242 13.8709C20.872 13.9993 20.9577 14.1101 21.07 14.1887C21.1822 14.2672 21.3158 14.3096 21.4528 14.3104H22.8352V5.69284C22.7253 5.68625 22.5737 5.68185 22.3956 5.68185Z" fill="black"/>
</svg>
