<svg width="28" height="30" viewBox="0 0 28 30" fill="none" xmlns="http://www.w3.org/2000/svg">
<path d="M16.5999 6.84009C16.3945 6.84519 16.1902 6.80774 15.9999 6.73009C15.795 6.62254 15.6187 6.46749 15.4859 6.27788C15.3532 6.08828 15.2677 5.86965 15.2367 5.64026C15.2057 5.41087 15.2301 5.17739 15.3078 4.95935C15.3855 4.74131 15.5142 4.54503 15.6833 4.38694C15.8524 4.22885 16.0569 4.11354 16.2796 4.05065C16.5024 3.98775 16.737 3.9791 16.9638 4.02542C17.1906 4.07174 17.403 4.17168 17.5833 4.31689C17.7635 4.4621 17.9064 4.64836 17.9999 4.86009C18.145 5.21587 18.145 5.61431 17.9999 5.97009C17.8837 6.24096 17.6871 6.46963 17.4367 6.62521C17.1864 6.78079 16.8943 6.8558 16.5999 6.84009Z" fill="white"/>
<path d="M13.1198 29.37C12.5044 29.3668 11.8959 29.2411 11.3298 29L3.06976 25.42C2.52679 25.1872 2.03524 24.8492 1.6234 24.4256C1.21156 24.002 0.887576 23.5012 0.670086 22.9519C0.452596 22.4026 0.345901 21.8157 0.356142 21.225C0.366383 20.6343 0.493359 20.0514 0.729759 19.51L6.72976 5.69001C6.9595 5.15086 7.29324 4.66227 7.71191 4.25218C8.13058 3.84209 8.62597 3.51853 9.16976 3.30001L15.0898 1.00001C16.1999 0.563728 17.4377 0.584995 18.5322 1.05915C19.6267 1.53331 20.4887 2.42174 20.9298 3.53001L23.2698 9.44001C23.4921 9.9893 23.6022 10.5775 23.5936 11.1701C23.585 11.7626 23.4579 12.3474 23.2198 12.89L17.2198 26.7C16.7472 27.7959 15.8588 28.6592 14.7498 29.1C14.2273 29.2881 13.675 29.3796 13.1198 29.37ZM2.55976 20.3C2.30093 20.9092 2.2922 21.5958 2.53545 22.2115C2.7787 22.8271 3.2544 23.3223 3.85976 23.59L12.1298 27.16C12.4304 27.2907 12.7539 27.3607 13.0816 27.366C13.4094 27.3714 13.735 27.312 14.0397 27.1912C14.3445 27.0704 14.6224 26.8906 14.8575 26.6622C15.0926 26.4338 15.2803 26.1611 15.4098 25.86L21.4098 12.04C21.6593 11.4278 21.6593 10.7422 21.4098 10.13L19.0698 4.21001C18.8248 3.59544 18.3463 3.103 17.739 2.84059C17.1317 2.57817 16.4452 2.56718 15.8298 2.81001L9.90976 5.15001C9.60365 5.27083 9.32477 5.45161 9.08951 5.68172C8.85424 5.91184 8.66733 6.18665 8.53976 6.49001L2.55976 20.3Z" fill="white"/>
<path d="M18.2402 27.9999C17.7667 27.9981 17.2969 27.917 16.8502 27.7599C16.608 27.6645 16.4126 27.4784 16.3054 27.2411C16.1983 27.0039 16.1879 26.7342 16.2764 26.4894C16.365 26.2446 16.5455 26.044 16.7796 25.9302C17.0137 25.8163 17.283 25.7983 17.5302 25.8799C18.0353 26.0612 18.5905 26.0431 19.0829 25.8295C19.5752 25.6159 19.9676 25.2226 20.1802 24.7299L25.5002 12.3799C25.7104 11.8603 25.7104 11.2794 25.5002 10.7599L23.4402 5.4999C23.2545 5.02898 22.9064 4.64005 22.4589 4.40345C22.0114 4.16685 21.4939 4.09819 21.0002 4.2099C20.735 4.26559 20.4585 4.21365 20.2316 4.0655C20.0047 3.91734 19.8459 3.68512 19.7902 3.4199C19.7345 3.15468 19.7864 2.8782 19.9346 2.65128C20.0828 2.42437 20.315 2.26559 20.5802 2.2099C21.5418 2.00126 22.5464 2.14367 23.4121 2.61139C24.2779 3.07911 24.9476 3.84124 25.3002 4.7599L27.3902 9.9999C27.5889 10.5028 27.686 11.0402 27.6757 11.5809C27.6654 12.1216 27.548 12.6549 27.3302 13.1499L22.0002 25.4799C21.6879 26.2211 21.1654 26.8547 20.4973 27.3025C19.8291 27.7503 19.0445 27.9927 18.2402 27.9999Z" fill="white"/>
<path d="M15.0997 11.8299C15.5728 12.1563 15.939 12.6151 16.1525 13.1488C16.366 13.6825 16.4172 14.2673 16.2997 14.8299L13.8597 14.5199C13.9618 14.331 14.0004 14.1143 13.9698 13.9018C13.9392 13.6893 13.841 13.4923 13.6897 13.3399C13.5879 13.2261 13.4613 13.1372 13.3197 13.0799C13.1642 13.0032 12.9932 12.9633 12.8197 12.9633C12.6463 12.9633 12.4753 13.0032 12.3197 13.0799C12.2257 13.1291 12.1489 13.2058 12.0997 13.2999C11.9697 13.5899 12.0997 13.9099 12.4997 14.2999C12.7248 14.5021 12.9655 14.686 13.2197 14.8499C13.8098 15.2519 14.3357 15.7408 14.7797 16.2999C15.0172 16.6497 15.1571 17.0564 15.1852 17.4782C15.2134 17.9 15.1286 18.3217 14.9397 18.6999C14.7636 19.0714 14.4903 19.3883 14.1488 19.6171C13.8073 19.846 13.4103 19.9782 12.9997 19.9999C12.5226 20.0745 12.0368 20.0745 11.5597 19.9999L11.2497 20.7199L8.99975 19.7199L9.31975 18.9899C8.94609 18.716 8.6351 18.3657 8.40749 17.9622C8.17987 17.5587 8.04087 17.1113 7.99975 16.6499C7.95972 16.3981 7.95972 16.1417 7.99975 15.8899L10.4497 16.1999C10.3524 16.3993 10.3241 16.6254 10.3693 16.8427C10.4146 17.0599 10.5308 17.256 10.6997 17.3999C10.843 17.5444 11.0127 17.6598 11.1997 17.7399C11.3873 17.8491 11.597 17.9147 11.8134 17.932C12.0297 17.9493 12.2472 17.9178 12.4497 17.8399C12.5364 17.8016 12.607 17.7344 12.6497 17.6499C12.7797 17.3399 12.6497 17.0099 12.2697 16.6499L11.1697 15.8099C10.4913 15.3773 9.96377 14.7449 9.65975 13.9999C9.50047 13.4163 9.55728 12.7949 9.81975 12.2499C9.98981 11.8856 10.2498 11.5705 10.5752 11.3344C10.9005 11.0982 11.2807 10.9487 11.6797 10.8999C12.0617 10.8547 12.4477 10.8547 12.8297 10.8999L13.1597 10.1499L15.3997 11.1499L15.0997 11.8299Z" fill="white"/>
</svg>
