<svg width="12" height="13" viewBox="0 0 12 13" fill="none" xmlns="http://www.w3.org/2000/svg">
<path d="M11.3627 3.91468L8.17594 0.727968C8.0609 0.612813 7.87411 0.612813 7.75907 0.727968L7.74557 0.74147C7.55017 0.936815 7.4425 1.19666 7.4425 1.47297C7.4425 1.65098 7.48773 1.82179 7.57175 1.97327L4.23739 4.83492C3.9822 4.60685 3.65648 4.48203 3.31149 4.48203C2.93973 4.48203 2.59025 4.62678 2.32746 4.88964L2.30747 4.90963C2.19231 5.02472 2.19231 5.2114 2.30747 5.3265L4.21657 7.2356L2.35723 9.09488C2.32003 9.13315 1.43994 10.0401 0.86134 10.7618C0.310331 11.4489 0.201367 11.5748 0.195707 11.5812C0.0934056 11.6977 0.0990661 11.8735 0.20856 11.9835C0.265932 12.0411 0.341581 12.0702 0.417467 12.0702C0.48663 12.0702 0.555971 12.046 0.61175 11.9973C0.616644 11.993 0.739641 11.8861 1.43122 11.3316C2.15281 10.753 3.05972 9.8729 3.10093 9.83275L4.95727 7.97641L6.76413 9.78328C6.82168 9.84088 6.89715 9.86966 6.97257 9.86966C7.04798 9.86966 7.12351 9.84088 7.181 9.78328L7.20099 9.76329C7.46385 9.50049 7.6086 9.15096 7.6086 8.77925C7.6086 8.43426 7.48372 8.10855 7.25571 7.85336L10.1174 4.519C10.2688 4.60302 10.4397 4.64824 10.6177 4.64824C10.894 4.64824 11.1538 4.54064 11.3492 4.34517L11.3627 4.33167C11.4778 4.21646 11.4778 4.02978 11.3627 3.91468Z" fill="black" fill-opacity="0.5"/>
</svg>
