<svg width="9" height="7" viewBox="0 0 9 7" fill="none" xmlns="http://www.w3.org/2000/svg">
<path d="M8.75471 2.7963L8.00267 6.11933C7.98775 6.18886 7.94907 6.25101 7.89327 6.29509C7.83747 6.33917 7.76805 6.36242 7.69696 6.36084H1.83962C1.76853 6.36242 1.69911 6.33917 1.64332 6.29509C1.58752 6.25101 1.54883 6.18886 1.53392 6.11933L0.806336 2.7963C0.794092 2.74015 0.797922 2.68169 0.817388 2.62762C0.836853 2.57355 0.871166 2.52606 0.916391 2.4906C0.961739 2.45501 1.01623 2.43297 1.07356 2.42702C1.1309 2.42107 1.18875 2.43145 1.24044 2.45697L3.02577 3.32212L4.50539 0.70527C4.53205 0.658223 4.57071 0.61909 4.61744 0.591864C4.66416 0.564638 4.71727 0.550293 4.77135 0.550293C4.82543 0.550293 4.87854 0.564638 4.92526 0.591864C4.97199 0.61909 5.01065 0.658223 5.03731 0.70527L6.51693 3.32518L8.31449 2.45391C8.36655 2.42632 8.42547 2.41435 8.48417 2.41946C8.54287 2.42457 8.59885 2.44653 8.64535 2.48271C8.69186 2.51888 8.72693 2.56772 8.74633 2.62336C8.76573 2.679 8.76864 2.73905 8.75471 2.7963Z" fill="black"/>
</svg>
