<svg width="29" height="29" viewBox="0 0 29 29" fill="none" xmlns="http://www.w3.org/2000/svg">
<rect x="0.427246" y="0.428711" width="28.5714" height="28.5714" rx="8.57143" fill="#E12626" fill-opacity="0.1"/>
<path fill-rule="evenodd" clip-rule="evenodd" d="M8.90967 14.7137C8.90967 11.5084 11.5079 8.91016 14.7132 8.91016C17.9186 8.91016 20.5168 11.5084 20.5168 14.7137C20.5168 17.9191 17.9186 20.5173 14.7132 20.5173C11.5079 20.5173 8.90967 17.9191 8.90967 14.7137ZM14.0918 13.8554C14.774 13.5143 15.5424 14.131 15.3573 14.8709L14.9353 16.559L14.9603 16.5471C15.0652 16.5009 15.1838 16.4969 15.2915 16.5358C15.3993 16.5748 15.488 16.6536 15.5392 16.7561C15.5905 16.8586 15.6003 16.9768 15.5668 17.0864C15.5333 17.196 15.4589 17.2884 15.3591 17.3447L15.3353 17.3578C14.6525 17.6988 13.8841 17.0822 14.0692 16.3423L14.4918 14.6542L14.4668 14.6661C14.4142 14.6954 14.3561 14.7137 14.2962 14.7199C14.2363 14.7262 14.1757 14.7202 14.1182 14.7024C14.0606 14.6846 14.0072 14.6554 13.9613 14.6164C13.9153 14.5775 13.8777 14.5296 13.8508 14.4758C13.8238 14.4219 13.808 14.3631 13.8043 14.303C13.8007 14.2429 13.8092 14.1826 13.8295 14.1259C13.8497 14.0692 13.8812 14.0171 13.9221 13.9729C13.963 13.9286 14.0124 13.8931 14.0674 13.8685L14.0918 13.8554ZM14.7132 12.928C14.8316 12.928 14.9452 12.881 15.0289 12.7973C15.1126 12.7135 15.1597 12.6 15.1597 12.4816C15.1597 12.3632 15.1126 12.2496 15.0289 12.1659C14.9452 12.0822 14.8316 12.0352 14.7132 12.0352C14.5948 12.0352 14.4813 12.0822 14.3976 12.1659C14.3138 12.2496 14.2668 12.3632 14.2668 12.4816C14.2668 12.6 14.3138 12.7135 14.3976 12.7973C14.4813 12.881 14.5948 12.928 14.7132 12.928Z" fill="#E12626"/>
</svg>
