<svg width="10" height="9" viewBox="0 0 10 9" fill="none" xmlns="http://www.w3.org/2000/svg">
<path d="M3.875 1.50022C3.87486 1.2197 3.79606 0.944845 3.64755 0.706863C3.49904 0.46888 3.28678 0.277311 3.03486 0.15391C2.78294 0.0305087 2.50147 -0.0197783 2.2224 0.00875977C1.94334 0.0372978 1.67787 0.143517 1.45615 0.315355C1.23442 0.487192 1.06532 0.717762 0.968058 0.980878C0.870793 1.24399 0.849258 1.52911 0.9059 1.80385C0.962541 2.07859 1.09509 2.33195 1.28849 2.53514C1.48189 2.73833 1.72839 2.88322 2 2.95335V6.0471C1.64651 6.13837 1.33843 6.35543 1.13353 6.6576C0.928623 6.95977 0.840956 7.32629 0.886959 7.68847C0.932962 8.05065 1.10948 8.38362 1.38342 8.62497C1.65736 8.86631 2.00991 8.99946 2.375 8.99946C2.74009 8.99946 3.09265 8.86631 3.36659 8.62497C3.64053 8.38362 3.81704 8.05065 3.86305 7.68847C3.90905 7.32629 3.82138 6.95977 3.61648 6.6576C3.41157 6.35543 3.1035 6.13837 2.75 6.0471V2.95335C3.07187 2.86974 3.35692 2.68174 3.5605 2.41878C3.76408 2.15583 3.87469 1.83277 3.875 1.50022ZM1.625 1.50022C1.625 1.35189 1.66899 1.20688 1.7514 1.08354C1.83381 0.960207 1.95095 0.864077 2.08799 0.807311C2.22504 0.750546 2.37584 0.735693 2.52132 0.764632C2.66681 0.793571 2.80044 0.865002 2.90533 0.969891C3.01022 1.07478 3.08165 1.20842 3.11059 1.3539C3.13953 1.49939 3.12468 1.65019 3.06791 1.78723C3.01115 1.92428 2.91502 2.04141 2.79168 2.12382C2.66834 2.20623 2.52334 2.25022 2.375 2.25022C2.17609 2.25022 1.98533 2.1712 1.84467 2.03055C1.70402 1.8899 1.625 1.69913 1.625 1.50022ZM3.125 7.50022C3.125 7.64856 3.08102 7.79356 2.99861 7.9169C2.91619 8.04024 2.79906 8.13636 2.66202 8.19313C2.52497 8.2499 2.37417 8.26475 2.22869 8.23581C2.0832 8.20687 1.94956 8.13544 1.84467 8.03055C1.73978 7.92566 1.66835 7.79202 1.63941 7.64654C1.61048 7.50105 1.62533 7.35025 1.68209 7.21321C1.73886 7.07616 1.83499 6.95903 1.95833 6.87662C2.08166 6.79421 2.22667 6.75022 2.375 6.75022C2.57392 6.75022 2.76468 6.82924 2.90533 6.96989C3.04599 7.11054 3.125 7.30131 3.125 7.50022ZM8.75 6.0471V3.686C8.75075 3.53807 8.72213 3.39147 8.66581 3.25468C8.60948 3.11789 8.52657 2.99364 8.42188 2.88913L6.65516 1.12522H8C8.09946 1.12522 8.19484 1.08571 8.26517 1.01539C8.33549 0.94506 8.375 0.849677 8.375 0.750221C8.375 0.650765 8.33549 0.555382 8.26517 0.485056C8.19484 0.41473 8.09946 0.375221 8 0.375221H5.75C5.65055 0.375221 5.55516 0.41473 5.48484 0.485056C5.41451 0.555382 5.375 0.650765 5.375 0.750221V3.00022C5.375 3.09968 5.41451 3.19506 5.48484 3.26539C5.55516 3.33571 5.65055 3.37522 5.75 3.37522C5.84946 3.37522 5.94484 3.33571 6.01517 3.26539C6.08549 3.19506 6.125 3.09968 6.125 3.00022V1.65538L7.89032 3.4221C7.92513 3.45695 7.95273 3.49832 7.97155 3.54384C7.99038 3.58936 8.00004 3.63815 8 3.68741V6.0471C7.64651 6.13837 7.33843 6.35543 7.13353 6.6576C6.92862 6.95977 6.84096 7.32629 6.88696 7.68847C6.93296 8.05065 7.10948 8.38362 7.38342 8.62497C7.65736 8.86631 8.00991 8.99946 8.375 8.99946C8.74009 8.99946 9.09265 8.86631 9.36659 8.62497C9.64053 8.38362 9.81704 8.05065 9.86305 7.68847C9.90905 7.32629 9.82138 6.95977 9.61648 6.6576C9.41157 6.35543 9.1035 6.13837 8.75 6.0471ZM8.375 8.25022C8.22667 8.25022 8.08166 8.20623 7.95832 8.12382C7.83499 8.04141 7.73886 7.92428 7.68209 7.78723C7.62533 7.65019 7.61048 7.49939 7.63941 7.3539C7.66835 7.20842 7.73978 7.07478 7.84467 6.96989C7.94956 6.865 8.0832 6.79357 8.22869 6.76463C8.37417 6.73569 8.52497 6.75055 8.66202 6.80731C8.79906 6.86408 8.91619 6.96021 8.9986 7.08354C9.08102 7.20688 9.125 7.35189 9.125 7.50022C9.125 7.69913 9.04599 7.8899 8.90533 8.03055C8.76468 8.1712 8.57392 8.25022 8.375 8.25022Z" fill="black"/>
</svg>
