<svg width="28" height="28" viewBox="0 0 28 28" fill="none" xmlns="http://www.w3.org/2000/svg">
<path d="M11.1933 4.59667C11.2983 3.96433 11.8467 3.5 12.4883 3.5H15.5135C16.1552 3.5 16.7035 3.96433 16.8085 4.59667L17.057 6.09117C17.1305 6.5275 17.4222 6.8915 17.8095 7.10617C17.8958 7.15283 17.981 7.203 18.0662 7.25433C18.4453 7.483 18.9062 7.55417 19.3203 7.399L20.7402 6.867C21.0311 6.75758 21.3515 6.75498 21.6442 6.85966C21.9369 6.96435 22.1829 7.16953 22.3385 7.43867L23.8505 10.0602C24.0057 10.3293 24.0604 10.6448 24.0049 10.9505C23.9493 11.2562 23.7871 11.5323 23.5472 11.7297L22.377 12.6945C22.0352 12.9757 21.866 13.4097 21.8753 13.8518C21.877 13.951 21.877 14.0502 21.8753 14.1493C21.866 14.5903 22.0352 15.0243 22.377 15.3055L23.5483 16.2703C24.043 16.6787 24.1713 17.3845 23.8517 17.9387L22.3373 20.5602C22.182 20.8292 21.9362 21.0345 21.6437 21.1394C21.3513 21.2443 21.0311 21.242 20.7402 21.133L19.3203 20.601C18.9062 20.4458 18.4453 20.517 18.065 20.7457C17.9804 20.7971 17.8948 20.8469 17.8083 20.895C17.4222 21.1085 17.1305 21.4725 17.057 21.9088L16.8085 23.4033C16.7035 24.0368 16.1552 24.5 15.5135 24.5H12.4872C11.8455 24.5 11.2983 24.0357 11.1922 23.4033L10.9437 21.9088C10.8713 21.4725 10.5797 21.1085 10.1923 20.8938C10.1058 20.8461 10.0202 20.7967 9.93565 20.7457C9.55649 20.517 9.09565 20.4458 8.68032 20.601L7.26049 21.133C6.96967 21.2421 6.64958 21.2445 6.35714 21.1399C6.06469 21.0352 5.81885 20.8302 5.66332 20.5613L4.15015 17.9398C3.99492 17.6707 3.94021 17.3552 3.99575 17.0495C4.0513 16.7438 4.2135 16.4677 4.45349 16.2703L5.62482 15.3055C5.96549 15.0255 6.13465 14.5903 6.12649 14.1493C6.12466 14.0502 6.12466 13.951 6.12649 13.8518C6.13465 13.4085 5.96549 12.9757 5.62482 12.6945L4.45349 11.7297C4.21378 11.5324 4.05177 11.2565 3.99624 10.9511C3.9407 10.6456 3.99524 10.3304 4.15015 10.0613L5.66332 7.43983C5.81871 7.17049 6.06467 6.96507 6.35739 6.86016C6.6501 6.75525 6.97056 6.75768 7.26165 6.867L8.68032 7.399C9.09565 7.55417 9.55649 7.483 9.93565 7.25433C10.0197 7.203 10.106 7.154 10.1923 7.105C10.5797 6.8915 10.8713 6.5275 10.9437 6.09117L11.1933 4.59667Z" stroke="white" stroke-opacity="0.5" stroke-width="1.5" stroke-linecap="round" stroke-linejoin="round"/>
<path d="M17.5 14C17.5 14.9283 17.1313 15.8185 16.4749 16.4749C15.8185 17.1313 14.9283 17.5 14 17.5C13.0717 17.5 12.1815 17.1313 11.5251 16.4749C10.8687 15.8185 10.5 14.9283 10.5 14C10.5 13.0717 10.8687 12.1815 11.5251 11.5251C12.1815 10.8687 13.0717 10.5 14 10.5C14.9283 10.5 15.8185 10.8687 16.4749 11.5251C17.1313 12.1815 17.5 13.0717 17.5 14Z" stroke="white" stroke-opacity="0.5" stroke-width="1.5" stroke-linecap="round" stroke-linejoin="round"/>
</svg>
