<svg width="57" height="57" viewBox="0 0 57 57" fill="none" xmlns="http://www.w3.org/2000/svg">
<rect x="0.279297" y="0.762695" width="55.9441" height="55.9441" rx="27.972" fill="white"/>
<g clip-path="url(#clip0_1377_16568)">
<path d="M37.5319 20.1353C37.5125 19.994 37.3888 19.9159 37.2868 19.9074C37.1849 19.8989 35.1937 19.8686 35.1937 19.8686C35.1937 19.8686 33.5284 18.2513 33.3639 18.0867C33.1994 17.9221 32.8781 17.972 32.7534 18.0087C32.7515 18.0093 32.4409 18.1055 31.9165 18.2678C31.8291 17.9836 31.7 17.6345 31.5161 17.2838C30.9232 16.1527 30.0551 15.554 29.0059 15.5524H29.0023C28.9296 15.5524 28.8571 15.5593 28.7846 15.5659C28.7537 15.5287 28.7225 15.4919 28.6897 15.4568C28.2329 14.9679 27.6463 14.7297 26.9442 14.7503C25.5889 14.7891 24.2399 15.7677 23.1456 17.5057C22.3754 18.7289 21.7902 20.2656 21.6238 21.4549C20.0679 21.9367 18.9794 22.2739 18.9558 22.2812C18.1705 22.5277 18.1458 22.5524 18.0428 23.2923C17.9648 23.8524 15.9102 39.7428 15.9102 39.7428L33.1323 42.721L40.5965 40.8657C40.5965 40.8657 37.5512 20.2765 37.5319 20.1353ZM22.5886 21.1561C23.0543 18.9786 24.8788 15.712 26.9703 15.6518C27.2885 15.6451 27.5565 15.715 27.7853 15.8656C27.4193 16.0557 27.0652 16.3288 26.7331 16.685C25.8723 17.6084 25.2129 19.0422 24.95 20.4248C24.1294 20.6789 23.3269 20.9274 22.5886 21.1561ZM28.8164 19.2276C27.9142 19.507 26.9292 19.812 25.9411 20.1179C26.2193 19.0538 26.7459 17.9943 27.3929 17.3002C27.6337 17.042 27.9704 16.7539 28.3691 16.5894C28.7442 17.371 28.8255 18.4791 28.8164 19.2276ZM29.7173 18.9487C29.7073 18.2624 29.6254 17.3079 29.3057 16.4828C30.3339 16.6776 30.8402 17.8411 31.0539 18.5348C30.6576 18.6575 30.2063 18.7972 29.7173 18.9487Z" fill="#95BF47"/>
<path d="M37.285 19.9075C37.183 19.899 35.1918 19.8687 35.1918 19.8687C35.1918 19.8687 33.5266 18.2514 33.3621 18.0868C33.3007 18.0254 33.2175 17.994 33.1309 17.9805L33.1313 42.721L40.5946 40.8658C40.5946 40.8658 37.5493 20.2766 37.53 20.1354C37.5107 19.9942 37.387 19.9161 37.285 19.9075Z" fill="#5E8E3E"/>
<path d="M28.9949 23.7456L28.128 26.9887C28.128 26.9887 27.161 26.5483 26.0145 26.6207C24.3335 26.7269 24.3156 27.7872 24.3324 28.053C24.424 29.5034 28.2396 29.8203 28.4541 33.2175C28.6229 35.8903 27.0365 37.7185 24.7506 37.8628C22.0075 38.036 20.4971 36.4174 20.4971 36.4174L21.0783 33.9445C21.0783 33.9445 22.5984 35.0913 23.8151 35.0145C24.6099 34.9643 24.8939 34.3179 24.8651 33.8607C24.7456 31.9687 21.6385 32.0801 21.4422 28.9713C21.277 26.3549 22.9951 23.7042 26.7862 23.4648C28.2469 23.3727 28.9949 23.7456 28.9949 23.7456Z" fill="white"/>
</g>
<defs>
<clipPath id="clip0_1377_16568">
<rect width="27.972" height="27.972" fill="white" transform="translate(14.2656 14.749)"/>
</clipPath>
</defs>
</svg>
