<svg width="15" height="15" viewBox="0 0 15 15" fill="none" xmlns="http://www.w3.org/2000/svg">
<path d="M11.8175 14.4601C11.2945 14.8326 7.939 12.4714 7.29634 12.4663C6.65369 12.4611 3.26041 14.768 2.74356 14.3871C2.2267 14.0063 3.4418 10.0944 3.24816 9.48338C3.05452 8.87235 -0.194339 6.36715 0.00917141 5.75929C0.212727 5.15143 4.31919 5.09497 4.84215 4.72248C5.3651 4.35004 6.75051 0.49486 7.39321 0.500005C8.03582 0.505195 9.35864 4.38216 9.87549 4.76302C10.3923 5.14383 14.4974 5.26641 14.6911 5.87744C14.8847 6.48848 11.5958 8.94107 11.3923 9.54892C11.1888 10.1568 12.3404 14.0877 11.8175 14.4601Z" fill="#F8B84E"/>
</svg>
