<svg width="65" height="56" viewBox="0 0 65 56" fill="none" xmlns="http://www.w3.org/2000/svg">
<path d="M31.4668 30.3682C32.3192 30.103 33.093 30.1363 33.5566 30.3682L33.6621 30.4209H33.7803C33.7822 30.4212 33.8351 30.4269 33.96 30.5205C34.0859 30.615 34.2202 30.7476 34.3867 30.9141L40.7871 37.3145C41.8715 38.3991 41.8715 40.0023 40.7871 41.0869C40.247 41.627 39.4167 41.9004 38.9004 41.9004C38.3841 41.9004 37.5538 41.627 37.0137 41.0869L35.2002 39.2734V52.001C35.2001 52.8471 34.9203 53.5132 34.4668 53.9668C34.0132 54.4204 33.3464 54.7002 32.5 54.7002C31.6538 54.7001 30.9877 54.4203 30.5342 53.9668C30.0806 53.5132 29.8009 52.8472 29.8008 52.001V39.2734L27.9873 41.0869C26.9026 42.1717 25.2986 42.1717 24.2139 41.0869C23.1293 40.0022 23.1293 38.3991 24.2139 37.3145L30.6143 30.9141C30.7111 30.8173 30.8042 30.7673 30.9639 30.6875C31.099 30.6199 31.2792 30.5283 31.4668 30.3682Z" fill="#C6FE1F" stroke="#F4F4F4"/>
<path d="M24.5 1.29932C29.1698 1.29932 33.5003 3.16671 36.2734 6.55615L36.2891 6.57568L36.3066 6.59326C36.4116 6.69821 36.535 6.79576 36.6445 6.88037C36.7615 6.97075 36.8691 7.0511 36.9795 7.14307C37.1969 7.32427 37.3778 7.51203 37.4932 7.74268L37.6494 8.05713L37.998 8.01611C43.2847 7.39415 48.5739 9.25992 52.3066 12.9927L52.3223 13.0093L52.3398 13.0229C54.1711 14.549 55.4127 16.7054 56.3604 18.9165L56.4355 19.0913L56.6084 19.1724C61.2193 21.3241 64 25.9391 64 31.1997C63.9999 34.9381 62.7536 38.6253 60.0078 41.0659C57.2009 43.5609 53.7945 45.0991 50.0996 45.0991C49.2535 45.099 48.5873 44.8192 48.1338 44.3657C47.6802 43.9121 47.4004 43.2453 47.4004 42.3989C47.4005 41.5527 47.6802 40.8866 48.1338 40.4331C48.5873 39.9796 49.2534 39.6998 50.0996 39.6997C52.4467 39.6997 54.5035 39.0234 56.2139 37.313L56.2334 37.2935L56.25 37.272C57.5735 35.6177 58.5995 33.5903 58.5996 31.1997C58.5996 27.8157 56.5805 24.7727 53.5488 23.4038C52.6505 22.8007 52.1217 22.2426 51.8545 21.4409C51.1929 19.4562 50.1946 17.7868 48.8535 16.4458L48.8398 16.4321L48.8252 16.4194C46.5152 14.4395 43.5238 13.0991 40.5 13.0991C39.5355 13.0991 38.5226 13.0981 37.1787 13.4341C36.0172 13.7245 34.7309 13.3988 34.2354 12.4292C33.8672 11.371 33.1541 10.6663 32.5332 10.0454C28.1779 5.69056 20.5017 5.69046 16.1465 10.0454L16.1328 10.0591L16.1201 10.0737C14.1401 12.3837 12.7999 15.3752 12.7998 18.3989V20.3687L12.8096 20.4175C13.072 21.73 12.3023 22.8191 11.1562 23.3921C10.4769 23.7318 9.47041 24.4012 8.78613 25.0854L8.7666 25.105L8.75 25.1274C7.42651 26.7818 6.40039 28.809 6.40039 31.1997C6.4006 35.9557 10.1444 39.6997 14.9004 39.6997C15.7466 39.6998 16.4127 39.9796 16.8662 40.4331C17.3198 40.8866 17.5995 41.5527 17.5996 42.3989C17.5996 43.2453 17.3198 43.9121 16.8662 44.3657C16.4127 44.8192 15.7465 45.099 14.9004 45.0991C7.1692 45.0991 1 38.9156 1 31.519C1.00006 27.7806 2.24641 24.0935 4.99219 21.6528L5.04004 21.6099L5.07617 21.5571C5.34465 21.1544 5.68425 20.8764 6.06641 20.6089C6.42611 20.3571 6.89276 20.0735 7.25391 19.7124L7.40039 19.5669V18.3989C7.40049 13.7322 9.26749 9.37948 12.374 6.27295C15.4806 3.16645 19.8332 1.29932 24.5 1.29932Z" fill="#C6FE1F" stroke="#F4F4F4"/>
</svg>
