<svg width="14" height="24" viewBox="0 0 14 24" fill="none" xmlns="http://www.w3.org/2000/svg">
<path fill-rule="evenodd" clip-rule="evenodd" d="M3.625 0.75C2.72989 0.75 1.87145 1.10558 1.23851 1.73851C0.605579 2.37145 0.25 3.22989 0.25 4.125V19.875C0.25 20.7701 0.605579 21.6286 1.23851 22.2615C1.87145 22.8944 2.72989 23.25 3.625 23.25H10.375C11.2701 23.25 12.1286 22.8944 12.7615 22.2615C13.3944 21.6286 13.75 20.7701 13.75 19.875V4.125C13.75 3.22989 13.3944 2.37145 12.7615 1.73851C12.1286 1.10558 11.2701 0.75 10.375 0.75H3.625ZM2.5 4.125C2.5 3.504 3.004 3 3.625 3H4.75V3.375C4.75 3.996 5.254 4.5 5.875 4.5H8.125C8.746 4.5 9.25 3.996 9.25 3.375V3H10.375C10.996 3 11.5 3.504 11.5 4.125V19.875C11.5 20.496 10.996 21 10.375 21H3.625C3.32663 21 3.04048 20.8815 2.8295 20.6705C2.61853 20.4595 2.5 20.1734 2.5 19.875V4.125Z" fill="#7D7D7D"/>
</svg>
