<svg viewBox="0 0 28 28" fill="#FFFFFF99" stroke="currentColor" xmlns="http://www.w3.org/2000/svg">
<path fill-rule="evenodd" clip-rule="evenodd" d="M11.7541 2.83828C11.7681 3.45316 11.281 3.96298 10.6661 3.97699C7.49912 4.04915 6.1226 4.37308 5.22834 5.26422C4.45582 6.03407 4.09633 7.1794 3.97592 9.60077C3.94536 10.2151 3.42263 10.6883 2.80834 10.6577C2.19406 10.6272 1.72085 10.1044 1.7514 9.49015C1.87495 7.0058 2.24532 5.09253 3.65616 3.68658C5.25659 2.0917 7.53124 1.82057 10.6153 1.75029C11.2302 1.73628 11.7401 2.22339 11.7541 2.83828ZM16.2459 2.83828C16.2599 2.22339 16.7697 1.73628 17.3847 1.75029C20.4687 1.82057 22.7434 2.0917 24.3438 3.68658C25.7547 5.09253 26.1251 7.0058 26.2486 9.49015C26.2791 10.1044 25.8059 10.6272 25.1916 10.6577C24.5774 10.6883 24.0546 10.2151 24.024 9.60077C23.9037 7.1794 23.5442 6.03407 22.7716 5.26422C21.8774 4.37308 20.5008 4.04915 17.3339 3.97699C16.7191 3.96298 16.2319 3.45316 16.2459 2.83828ZM2.80834 17.3423C3.42263 17.3117 3.94536 17.7849 3.97592 18.3993C4.09633 20.8206 4.45582 21.9659 5.22834 22.7358C6.1226 23.627 7.49912 23.9509 10.6661 24.0231C11.281 24.0371 11.7681 24.5469 11.7541 25.1617C11.7401 25.7766 11.2302 26.2638 10.6153 26.2497C7.53124 26.1794 5.25659 25.9083 3.65616 24.3134C2.24532 22.9075 1.87495 20.9942 1.7514 18.5099C1.72085 17.8956 2.19406 17.3728 2.80834 17.3423ZM25.1916 17.3423C25.8059 17.3728 26.2791 17.8956 26.2486 18.5099C26.1251 20.9942 25.7547 22.9075 24.3438 24.3134C22.7434 25.9083 20.4687 26.1794 17.3847 26.2497C16.7697 26.2638 16.2599 25.7766 16.2459 25.1617C16.2319 24.5469 16.7191 24.0371 17.3339 24.0231C20.5008 23.9509 21.8774 23.627 22.7716 22.7358C23.5442 21.9659 23.9037 20.8206 24.024 18.3993C24.0546 17.7849 24.5774 17.3117 25.1916 17.3423Z"    />
<path d="M10.2832 11.1501C10.2832 9.10355 11.9442 7.44659 13.9908 7.44659C16.0373 7.44659 17.6982 9.10355 17.6982 11.1501C17.6982 13.1966 16.0373 14.8535 13.9908 14.8535C11.9442 14.8535 10.2832 13.1966 10.2832 11.1501Z"     />
<path d="M8.28204 20.3148C7.94065 19.9889 7.92813 19.4479 8.25408 19.1064C11.2317 15.9878 16.7169 15.8194 19.7564 19.1175C20.0763 19.4646 20.0543 20.0052 19.7072 20.3251C19.5429 20.4765 19.3351 20.5513 19.1281 20.5513H8.87222C8.66009 20.5513 8.44759 20.4728 8.28204 20.3148Z"   />
</svg>
