<svg width="14" height="15" viewBox="0 0 14 15" fill="none" xmlns="http://www.w3.org/2000/svg">
<path d="M7 3.9082C11.1049 3.9082 13 7.91453 13 7.91453C13 7.91453 11.1049 11.9208 7 11.9208C2.89508 11.9208 1 7.91453 1 7.91453C1 7.91453 2.89508 3.9082 7 3.9082Z" stroke="black" stroke-width="1.2" stroke-linejoin="round"/>
<path d="M8.7895 7.91481C8.795 8.17475 8.75133 8.43323 8.66104 8.67508C8.57076 8.91693 8.43568 9.13726 8.26375 9.32316C8.09182 9.50905 7.88649 9.65675 7.65983 9.7576C7.43316 9.85844 7.18972 9.91038 6.94381 9.91038C6.6979 9.91038 6.45446 9.85844 6.22779 9.7576C6.00113 9.65675 5.7958 9.50905 5.62387 9.32316C5.45194 9.13726 5.31686 8.91693 5.22658 8.67508C5.13629 8.43323 5.09262 8.17475 5.09812 7.91481C5.09812 7.39713 5.29262 6.90065 5.63884 6.5346C5.98506 6.16854 6.45464 5.96289 6.94427 5.96289C7.4339 5.96289 7.90348 6.16854 8.2497 6.5346C8.59592 6.90065 8.79043 7.39713 8.79043 7.91481H8.7895Z" stroke="black" stroke-width="1.5" stroke-linejoin="round"/>
</svg>
