<svg width="36" height="36" viewBox="0 0 36 36" fill="none" xmlns="http://www.w3.org/2000/svg">
<path d="M0 18C0 8.05888 8.05888 0 18 0C27.9411 0 36 8.05888 36 18C36 27.9411 27.9411 36 18 36C8.05888 36 0 27.9411 0 18Z" fill="#F1171B" fill-opacity="0.05"/>
<path d="M11.3753 23.0614C10.9399 23.0614 10.5673 22.9065 10.2575 22.5967C9.94769 22.2869 9.79252 21.914 9.79199 21.4781V19.8947C9.79199 19.6704 9.86799 19.4825 10.02 19.3311C10.172 19.1796 10.3599 19.1036 10.5837 19.1031C10.8074 19.1025 10.9956 19.1785 11.1481 19.3311C11.3006 19.4836 11.3764 19.6715 11.3753 19.8947V21.4781H25.6253V19.8947C25.6253 19.6704 25.7013 19.4823 25.8533 19.3303C26.0053 19.1783 26.1932 19.1025 26.417 19.1031C26.6408 19.1036 26.8289 19.1796 26.9815 19.3311C27.134 19.4825 27.2097 19.6704 27.2087 19.8947V21.4781C27.2087 21.9135 27.0538 22.2864 26.744 22.5967C26.4341 22.907 26.0613 23.0619 25.6253 23.0614H11.3753ZM14.8191 20.0531C14.1725 20.0531 13.6646 19.885 13.2951 19.5488C12.9257 19.2126 12.741 18.7539 12.741 18.1729C12.741 17.6187 12.9555 17.1669 13.3846 16.8175C13.8137 16.4681 14.3644 16.2932 15.0368 16.2926C15.3403 16.2926 15.6208 16.3159 15.8783 16.3623C16.1359 16.4088 16.3568 16.4845 16.541 16.5895V16.3124C16.541 15.9562 16.419 15.6725 16.1752 15.4614C15.9314 15.2503 15.5981 15.1447 15.1753 15.1447C14.9774 15.1447 14.7895 15.1745 14.6117 15.2342C14.4338 15.2938 14.272 15.3762 14.1264 15.4812C14.0076 15.5735 13.8791 15.6263 13.7408 15.6395C13.6025 15.6527 13.4738 15.6131 13.3545 15.5208C13.2352 15.4284 13.1626 15.3131 13.1368 15.1748C13.1109 15.0365 13.1505 14.9144 13.2555 14.8083C13.493 14.584 13.7735 14.4124 14.0971 14.2937C14.4206 14.1749 14.7866 14.1156 15.1951 14.1156C16.0132 14.1156 16.6399 14.3103 17.0753 14.6998C17.5107 15.0893 17.7285 15.6532 17.7285 16.3916V19.301C17.7285 19.4593 17.6722 19.5947 17.5598 19.7071C17.4474 19.8195 17.3123 19.8755 17.1545 19.8749C16.983 19.8749 16.8413 19.8187 16.7294 19.7063C16.6175 19.5939 16.5613 19.4522 16.5607 19.2812V19.202H16.5014C16.3298 19.4659 16.0989 19.6739 15.8087 19.8259C15.5184 19.9779 15.1885 20.0536 14.8191 20.0531ZM15.2545 17.2229C14.8323 17.2229 14.509 17.3054 14.2847 17.4706C14.0604 17.6358 13.9482 17.8699 13.9482 18.1729C13.9482 18.4367 14.0472 18.6513 14.2451 18.8165C14.443 18.9817 14.7003 19.064 15.017 19.0635C15.4392 19.0635 15.7989 18.9152 16.096 18.6186C16.3932 18.3219 16.5415 17.9623 16.541 17.5395C16.3562 17.434 16.1451 17.3548 15.9076 17.302C15.6701 17.2492 15.4524 17.2229 15.2545 17.2229ZM21.9243 20.0531C21.3833 20.0531 20.9711 19.9343 20.6877 19.6968C20.4043 19.4593 20.2227 19.2746 20.143 19.1426H20.0837V19.3999C20.0837 19.5583 20.0277 19.6936 19.9158 19.8061C19.8039 19.9185 19.6686 19.9744 19.5097 19.9739C19.3508 19.9734 19.2123 19.914 19.0941 19.7958C18.9759 19.6775 18.9165 19.539 18.916 19.3801V12.552C18.916 12.3805 18.9753 12.2354 19.0941 12.1166C19.2128 11.9979 19.358 11.9385 19.5295 11.9385C19.701 11.9385 19.8462 11.9979 19.9649 12.1166C20.0837 12.2354 20.143 12.3805 20.143 12.552V14.1749L20.0837 14.9666H20.143C20.1826 14.9006 20.341 14.7323 20.618 14.4615C20.8951 14.1908 21.3305 14.0557 21.9243 14.0562C22.7687 14.0562 23.435 14.3597 23.9232 14.9666C24.4114 15.5735 24.6555 16.2729 24.6555 17.0645C24.6555 17.8562 24.4149 18.5523 23.9335 19.1529C23.4522 19.7535 22.7825 20.0536 21.9243 20.0531ZM21.7462 15.1645C21.2184 15.1645 20.8094 15.3593 20.5191 15.7488C20.2288 16.1383 20.0837 16.5703 20.0837 17.0447C20.0837 17.5329 20.2288 17.9683 20.5191 18.351C20.8094 18.7336 21.2184 18.9249 21.7462 18.9249C22.2739 18.9249 22.6864 18.7336 22.9835 18.351C23.2807 17.9683 23.429 17.5329 23.4285 17.0447C23.4279 16.5565 23.2796 16.1211 22.9835 15.7385C22.6875 15.3558 22.275 15.1645 21.7462 15.1645Z" fill="#FF0004"/>
</svg>
